<?xml version="1.0" standalone="no"?>
<!DOCTYPE svg PUBLIC "-//W3C//DTD SVG 20010904//EN"
 "http://www.w3.org/TR/2001/REC-SVG-20010904/DTD/svg10.dtd">
<svg version="1.0" xmlns="http://www.w3.org/2000/svg"
 width="700.000000pt" height="700.000000pt" viewBox="0 0 700.000000 700.000000"
 preserveAspectRatio="xMidYMid meet">
<metadata>
Created by potrace 1.11, written by Peter Selinger 2001-2013
</metadata>
<g transform="translate(0.000000,700.000000) scale(0.100000,-0.100000)"
fill="#000000" stroke="none">
<path d="M2110 5505 c-5 -11 -16 -65 -26 -120 -21 -126 -21 -123 -40 -225 -9
-47 -18 -94 -19 -105 -2 -11 -13 -72 -25 -135 -12 -63 -23 -124 -25 -135 -1
-11 -26 -146 -54 -300 -28 -154 -54 -293 -57 -310 -2 -16 -7 -37 -9 -45 -2 -8
-7 -37 -11 -65 -3 -27 -8 -52 -9 -55 -2 -3 -11 -50 -20 -105 -10 -55 -19 -109
-21 -120 -4 -18 -18 -95 -60 -320 -8 -44 -26 -143 -39 -220 -14 -77 -27 -151
-30 -165 -11 -52 -16 -78 -35 -190 -10 -56 -16 -86 -25 -130 -2 -14 -7 -41
-10 -60 -3 -19 -15 -82 -25 -140 -11 -58 -22 -116 -24 -130 -2 -14 -13 -74
-25 -135 -11 -60 -46 -249 -77 -420 -31 -170 -58 -320 -60 -332 -4 -19 0 -23
23 -24 100 -3 1174 -1 1177 2 2 2 7 27 10 54 11 82 14 105 30 215 27 183 75
543 82 605 l7 60 230 233 c128 127 234 232 238 232 3 0 30 -55 59 -122 29 -68
86 -197 125 -288 40 -91 83 -190 97 -220 13 -30 96 -220 184 -422 l159 -367
658 -1 657 0 -14 32 c-8 18 -55 123 -106 233 -51 110 -103 224 -116 252 -13
29 -36 79 -50 110 -120 260 -144 313 -164 358 -15 35 -212 465 -275 600 -12
28 -46 102 -75 165 -60 132 -98 214 -147 320 -19 41 -44 97 -54 124 l-20 48
738 740 c406 407 800 801 876 876 76 75 142 144 146 152 8 13 -53 15 -520 15
l-529 0 -921 -923 c-507 -508 -923 -922 -925 -920 -2 2 7 69 21 149 13 79 26
162 29 184 4 23 9 52 11 65 3 14 8 41 10 60 3 19 9 53 12 75 4 22 8 45 9 50 1
12 15 103 20 127 1 9 6 38 10 65 3 26 8 57 10 68 5 26 35 204 39 230 6 47 18
122 22 140 2 11 6 36 9 55 2 19 11 73 19 120 8 47 17 103 20 125 4 22 15 90
25 150 11 61 21 126 22 145 l3 34 -569 1 c-560 0 -569 0 -576 -20z"/>
</g>
</svg>
