<?xml version="1.0" encoding="utf-8"?>
<!-- Generator: Adobe Illustrator 22.1.0, SVG Export Plug-In . SVG Version: 6.00 Build 0)  -->
<svg version="1.1" xmlns="http://www.w3.org/2000/svg" xmlns:xlink="http://www.w3.org/1999/xlink" x="0px" y="0px"
	 viewBox="0 0 1481.2 819.9" style="enable-background:new 0 0 1481.2 819.9;" xml:space="preserve">
<style type="text/css">
	.st0{display:none;}
	.st1{display:inline;fill:#FFFFFF;}
	.st2{display:inline;}
	.st3{fill:#2D4234;}
	.st4{fill:#74EDBD;}
	.st5{fill:#77E5E8;}
	.st6{enable-background:new    ;}
	.st7{fill:#2E3144;}
	.st8{fill:none;}
</style>
<g id="圖層_1" class="st0">
	<path class="st1" d="M765.8,458.5H624.3c-17,0-30.7-13.8-30.7-30.7V286.2c0-17,13.8-30.7,30.7-30.7h141.5c17,0,30.7,13.8,30.7,30.7
		v141.5C796.5,444.7,782.8,458.5,765.8,458.5z"/>
	<g class="st2">
		<polygon class="st3" points="729,386.6 702.9,412.7 703.9,415 704.6,415 730.3,389.3 		"/>
		<polygon class="st3" points="648.2,339.1 687.8,299.5 688,298.4 685,298.4 649,334.3 		"/>
		<polygon class="st3" points="651.6,319.7 650.8,324.5 676.9,298.4 672.9,298.4 		"/>
		<polygon class="st3" points="685.3,314.1 686.1,309.2 646.5,348.9 645.6,353.7 		"/>
		<polygon class="st3" points="654.2,305.1 653.3,309.9 664.9,298.4 660.9,298.4 		"/>
		<polygon class="st3" points="722.8,372.8 721.5,370.1 695.6,395.9 696.8,398.7 		"/>
		<polygon class="st3" points="726.5,381.1 725.3,378.3 699.3,404.3 700.5,407.1 		"/>
		<polygon class="st3" points="717.7,361.8 692,387.6 693.2,390.4 719,364.6 		"/>
		<path class="st3" d="M669.8,401.7l0.9-4.9L652.5,415c1.3,0,2.6,0,4,0L669.8,401.7z"/>
		<path class="st3" d="M668.1,411.4l-3.6,3.6c1,0,1.9,0,2.9,0L668.1,411.4z"/>
		<polygon class="st3" points="734.1,397.6 732.8,394.8 712.6,415 716.7,415 		"/>
		<polygon class="st3" points="741.6,414.1 740.3,411.4 736.7,415 740.7,415 		"/>
		<polygon class="st3" points="737.8,405.9 736.6,403.1 724.7,415 728.7,415 		"/>
		<polygon class="st3" points="737.1,298.4 733.1,298.4 638.7,392.7 637.9,397.5 		"/>
		<polygon class="st3" points="689.5,382 715.2,356.3 714,353.5 688.3,379.2 		"/>
		<polygon class="st3" points="680.1,343.3 681,338.4 641.3,378.1 640.5,382.9 		"/>
		<polygon class="st3" points="682.7,328.7 683.5,323.8 643.9,363.5 643,368.3 		"/>
		<path class="st3" d="M685.9,373.6l66.7-66.7l7.9-8.5h-3.4L640.5,415c1.4,0,2.7,0,4,0l27.9-27.9L685.9,373.6z"/>
		<polygon class="st3" points="749.1,298.4 745.1,298.4 636.2,407.3 635.3,412.1 		"/>
		<path class="st4" d="M712.4,350.1l-25,26.9l16.6,38H742L712.4,350.1z M667.5,415l3.6-20.6L652,415H667.5z"/>
		<path class="st5" d="M693.7,350.1l-25,26.9l16.6,38h38.1L693.7,350.1z M648.8,415l3.6-20.6L633.3,415H648.8z"/>
		<path class="st3" d="M699.9,363.5L687.4,377l16.6,38h19.4L699.9,363.5z"/>
		<path class="st3" d="M699.9,363.5L687.4,377l16.6,38h19.4L699.9,363.5z"/>
	</g>
</g>
<g id="圖層_3" class="st0">
</g>
<g id="圖層_2">
	<path class="st4" d="M1060.2,568.6L1060.2,568.6c-0.3-7.8-1-15.3-2.1-22.4L947.6,656.6c-3.5,13.8-7.5,26-12.1,36.6
		c-2.5,5.7-5.2,11-8.1,15.8c-0.1,0.2-0.2,0.4-0.3,0.5c-0.2,0.3-0.4,0.7-0.6,1c-1,1.6-2,3.1-3,4.6c-2.5,3.6-5,6.8-7.6,9.7
		c-0.3,0.3-0.6,0.6-0.8,0.9c-0.4,0.4-0.7,0.8-1.1,1.2c-0.2,0.2-0.4,0.5-0.7,0.7l0,0c-0.3,0.4-0.7,0.7-1.1,1.1
		c-0.4,0.4-0.8,0.8-1.2,1.1c-0.4,0.4-0.8,0.7-1.2,1.1c-7.8,7.1-16,11.2-24.5,12.4c-1.7,0.2-3.5,0.4-5.3,0.4c0,0,0,0-0.1,0l-1.1,6.1
		l-2.7,15l-5.4,30l-2.7,15l-1.8,10.2h0.3c47.8,0,88.6-16.9,122.4-50.7c28.6-28.6,48.9-66.3,60.7-113.2c0.1-0.3,0.1-0.5,0.2-0.8
		c0.1-0.6,0.3-1.2,0.4-1.8s0.3-1.2,0.4-1.8c1.7-7.1,3.2-14.3,4.5-21.8C1059.2,607.6,1060.8,587.2,1060.2,568.6z"/>
	<path class="st5" d="M997.4,568.6L997.4,568.6c-0.3-7.8-1-15.3-2.1-22.4L884.8,656.6c-3.5,13.8-7.5,26-12.1,36.6
		c-2.5,5.7-5.2,11-8.1,15.8c-0.1,0.2-0.2,0.4-0.3,0.5c-0.2,0.3-0.4,0.7-0.6,1c-1,1.6-2,3.1-3,4.6c-2.5,3.6-5,6.8-7.6,9.7
		c-0.3,0.3-0.6,0.6-0.8,0.9c-0.4,0.4-0.7,0.8-1.1,1.2c-0.2,0.2-0.4,0.5-0.7,0.7l0,0c-0.3,0.4-0.7,0.7-1.1,1.1
		c-0.4,0.4-0.8,0.8-1.2,1.1c-0.4,0.4-0.8,0.7-1.2,1.1c-7.8,7.1-16,11.2-24.5,12.4c-1.7,0.2-3.5,0.4-5.3,0.4c0,0,0,0-0.1,0l-1.1,6.1
		l-2.7,15l-5.4,30l-2.7,15l-1.8,10.2h0.3c47.8,0,88.6-16.9,122.4-50.7c28.6-28.6,48.9-66.3,60.7-113.2c0.1-0.3,0.1-0.5,0.2-0.8
		c0.1-0.6,0.3-1.2,0.4-1.8s0.3-1.2,0.4-1.8c1.7-7.1,3.2-14.3,4.5-21.8C996.4,607.6,998.1,587.2,997.4,568.6z"/>
	<g class="st6">
		<path class="st4" d="M321.6,7.7l-91,160.6h59.9l28-49h3.7l-30.1,171h73.2L415.2,7.7H321.6z"/>
		<path class="st5" d="M284.7,7.7l-91,160.6h59.9l28-49h3.7l-30.1,171h73.2L378.3,7.7H284.7z"/>
		<path class="st3" d="M369.7,266l2.1-11.8l-36,36c3,0,6.3,0,9.7,0L369.7,266z"/>
		<polygon class="st3" points="295.3,272.4 293.2,284.2 382.1,195.3 384.2,183.5 		"/>
		<path class="st3" d="M375.9,230.7l2.1-11.8l-71.4,71.4c3.4,0,6.6,0,9.7,0L375.9,230.7z"/>
		<path class="st3" d="M365.5,289.6l-0.6,0.6c0.2,0,0.4,0,0.5,0L365.5,289.6z"/>
		<polygon class="st3" points="400.9,89.2 402.9,77.4 314,166.3 311.9,178.1 		"/>
		<polygon class="st3" points="197.1,30.7 195.4,22.7 74.7,143.4 72.6,155.2 		"/>
		<polygon class="st3" points="97.5,13.7 103.6,7.7 98.6,7.7 		"/>
		<polygon class="st3" points="202.3,54.7 200.6,46.7 68.4,178.8 66.3,190.6 		"/>
		<polygon class="st3" points="161.8,7.7 152.1,7.7 87.1,72.7 85.1,84.5 		"/>
		<polygon class="st3" points="191,7.7 181.3,7.7 80.9,108.1 78.8,119.9 		"/>
		<polygon class="st3" points="222.9,150.6 221.2,142.6 171.9,191.9 173.7,199.8 		"/>
		<polygon class="st3" points="276.6,87.2 263.9,109.6 365.8,7.7 356.1,7.7 		"/>
		<polygon class="st3" points="166.6,168 168.4,176 217.8,126.6 216,118.6 		"/>
		<polygon class="st3" points="394.9,7.7 385.2,7.7 238.5,154.4 230.7,168.3 226.7,168.3 226.4,166.5 177.2,215.7 179,223.7 		"/>
		<polygon class="st3" points="132.7,7.7 123,7.7 93.4,37.3 91.3,49.1 		"/>
		<polygon class="st3" points="138.6,196 49.7,284.9 48.8,290.3 54.1,290.3 136.5,207.8 		"/>
		<polygon class="st3" points="300.8,150.4 187.8,263.4 188,264.6 196.3,264.6 287.8,173.1 		"/>
		<polygon class="st3" points="394.6,124.5 396.7,112.8 307.8,201.7 305.7,213.5 		"/>
		<polygon class="st3" points="248.8,241.2 261.8,218.5 215.7,264.6 225.4,264.6 		"/>
		<polygon class="st3" points="320.3,130.9 318.2,142.7 407.1,53.8 409.2,42 		"/>
		<polygon class="st3" points="314.7,20 302,42.4 336.6,7.7 326.9,7.7 		"/>
		<polygon class="st3" points="149,137.1 151.1,125.3 62.2,214.2 60.1,226 		"/>
		<polygon class="st3" points="413.3,18.4 415.2,7.7 414.3,7.7 182.5,239.6 184.2,247.5 		"/>
		<polygon class="st3" points="161.4,144.1 163.1,152.1 212.6,102.6 210.9,94.6 		"/>
		<polygon class="st3" points="156.1,120.3 157.8,128.2 207.4,78.6 205.7,70.6 		"/>
		<polygon class="st3" points="142.8,172.4 144.9,160.6 56,249.6 53.9,261.3 		"/>
		<polygon class="st3" points="124.1,278.5 126.1,266.8 102.7,290.3 112.4,290.3 		"/>
		<polygon class="st3" points="130.3,243.2 132.4,231.4 73.5,290.3 83.2,290.3 		"/>
		<polygon class="st3" points="388.4,159.9 390.5,148.1 301.5,237 299.5,248.8 		"/>
		<path class="st7" d="M321.6,7.7l-91,160.6h23l28-49h3.7l-8.6,49h13.8l28-49h3.7l-30.1,171h36.3L378.3,7.7H321.6z"/>
		<path class="st3" d="M321.6,7.7l-91,160.6h23l28-49h3.7l-8.6,49h13.8l28-49h3.7l-30.1,171h36.3L378.3,7.7H321.6z"/>
	</g>
	<g>
		<path class="st4" d="M666.4,147.5c-10.7-13.2-29.4-22.3-56.2-27.2l-24.3-4.5l-12.6,71.5c7.7,2.1,13.4,4.5,17.1,7.2
			c5.6,4,7.8,9.5,6.6,16.5c-1.5,8.5-6.5,15.3-15,20.5c-5.1,3.1-11,5.3-17.6,6.5l-10.5,59.6c30.8-2.1,56.7-10.5,77.7-25.1
			c24.6-17.1,39.5-40.7,44.8-70.9C680.3,178.7,677,160.7,666.4,147.5z M669.1,24.8c-15.4-13.9-36.4-22-62.9-24.3l-10.6,59.9
			c5.1,1.4,9.6,3.8,13.3,7c7,5.9,9.9,13.4,8.7,22.4h72.6C694.7,63.2,687.6,41.5,669.1,24.8z"/>
		<path class="st5" d="M620.8,147.5c-10.7-13.2-29.4-22.3-56.2-27.2l-24.3-4.5l-12.6,71.5c7.7,2.1,13.4,4.5,17.1,7.2
			c5.6,4,7.8,9.5,6.6,16.5c-1.5,8.5-6.5,15.3-15,20.5c-5.1,3.1-11,5.3-17.6,6.5l-10.5,59.6c30.8-2.1,56.7-10.5,77.7-25.1
			c24.6-17.1,39.5-40.7,44.8-70.9C634.8,178.7,631.5,160.7,620.8,147.5z M623.5,24.8c-15.4-13.9-36.4-22-62.9-24.3l-10.6,59.9
			c5.1,1.4,9.6,3.8,13.3,7c7,5.9,9.9,13.4,8.7,22.4h72.6C649.1,63.2,642,41.5,623.5,24.8z"/>
		<path class="st3" d="M508.4,208.6c-1.2,0-2.4,0-3.6,0l-57.9,57.9c1.5,1.7,3,3.4,4.7,5l56.8-56.8
			C508.3,212.7,508.2,210.7,508.4,208.6z"/>
		<path class="st3" d="M514.9,227.6l-52.5,52.5c1.9,1.3,4,2.5,6.1,3.6l51.8-51.8c-0.6-0.4-1.2-0.8-1.8-1.2
			C517.2,229.7,516,228.7,514.9,227.6z"/>
		<path class="st3" d="M542.6,238.8c-3-0.3-5.8-0.7-8.4-1.3L482,289.7c2.4,0.9,4.8,1.7,7.3,2.4L542.6,238.8z"/>
		<path class="st3" d="M517.9,176.1l61.6-61.6l-6-1.1c-0.7-0.1-1.4-0.3-2.1-0.4l-61.1,61.1C512.6,174.9,515.2,175.5,517.9,176.1z"/>
		<path class="st3" d="M475.7,208.6l-39.5,39.5c0.9,2.3,1.9,4.5,3,6.7l46.3-46.3C481.9,208.6,478.7,208.6,475.7,208.6z"/>
		<path class="st3" d="M446.5,208.6L432,223.2c0,3.2,0.1,6.3,0.4,9.3l23.8-23.8C453.2,208.6,449.9,208.6,446.5,208.6z"/>
		<path class="st3" d="M620.1,122.4L558.6,184l0.8,0.2c2.6,0.5,4.9,1,7.2,1.5l61.1-61.1C625.3,123.8,622.8,123.1,620.1,122.4z"/>
		<path class="st3" d="M531.9,298c1.8,0,3.7,0.1,5.6,0.1c1.4,0,2.7,0,4.1-0.1l133.7-133.7c-0.7-2.4-1.7-4.7-2.7-7L531.9,298z"/>
		<path class="st3" d="M581.6,190.1c2.6,1,4.8,2,6.6,3.1l60.1-60.1c-2-1.1-4.2-2.2-6.5-3.2L581.6,190.1z"/>
		<path class="st3" d="M652.6,89.9h9.7l28.1-28.1c-0.5-2.7-1.1-5.2-1.9-7.8L652.6,89.9z"/>
		<path class="st3" d="M623.5,89.9h9.7l49.2-49.2c-1.2-2-2.5-3.9-3.9-5.8L623.5,89.9z"/>
		<path class="st3" d="M681.7,89.9h8.6c0.5-3.3,0.9-6.5,1.1-9.7L681.7,89.9z"/>
		<path class="st3" d="M594.8,60.3c2.5,0.7,4.9,1.5,7.1,2.6l50-50c-2.1-1.1-4.3-2.2-6.6-3.2L594.8,60.3z"/>
		<path class="st3" d="M456.9,110.8c0,3.1,0.2,6.2,0.6,9.1L577.2,0.3c-3.6,0.2-7.2,0.6-10.7,1L456.9,110.8z"/>
		<polygon class="st3" points="534.1,179.3 542.2,180.9 604,119.1 595.8,117.6 		"/>
		<path class="st3" d="M461.4,135.4c0.9,2.3,1.9,4.5,3.1,6.6L606,0.6c-3-0.3-6-0.4-9.1-0.6L461.4,135.4z"/>
		<path class="st3" d="M565.6,60.4c3.6-0.9,7.3-1.5,11.4-1.7l53.9-53.9c-2.5-0.7-5.2-1.3-7.9-1.8L565.6,60.4z"/>
		<path class="st3" d="M538.3,87.7l-65.5,65.5c1.6,1.6,3.2,3.2,5,4.7l61.7-61.7C538.4,93.7,538,90.8,538.3,87.7z"/>
		<path class="st3" d="M489.4,165.8c2.1,1.1,4.2,2.2,6.5,3.2l60.1-60.1c-2.5-0.9-4.8-1.9-6.7-3L489.4,165.8z"/>
		<path class="st3" d="M562.6,238.3l-57.4,57.4c2.8,0.5,5.6,0.8,8.5,1.2l62.4-62.4C572,236.2,567.4,237.5,562.6,238.3z"/>
		<path class="st3" d="M616.4,77.6l52.7-52.7c0,0,0,0,0,0c-1.7-1.5-3.5-3-5.3-4.4l-51,51C614.3,73.4,615.6,75.4,616.4,77.6z"/>
		<path class="st3" d="M463.2,75.4c-1.6,4.4-2.9,8.9-3.9,13.6l82.8-82.8c-5.1,1.5-10.1,3.2-14.9,5.2L463.2,75.4z"/>
		<path class="st3" d="M596.9,211c-0.2,1.2-0.5,2.4-0.9,3.5l68.7-68.7c-1.5-1.7-3.1-3.3-4.9-4.8l-63,63
			C597.4,206.1,597.4,208.4,596.9,211z"/>
		<path class="st3" d="M599.7,288.5c5.9-2.1,11.5-4.4,16.9-7.2l50.7-50.7c2.3-5,4.3-10.2,5.9-15.6L599.7,288.5z"/>
		<path class="st3" d="M573.6,295.2l104-104c0.3-3.4,0.3-6.7,0.2-9.9L562.3,296.8C566.2,296.3,569.9,295.8,573.6,295.2z"/>
		<path class="st3" d="M620.8,147.5c-7.8-9.7-20-17.2-36.6-22.4l-11,62.2c7.7,2.1,13.4,4.5,17.1,7.2c5.6,4,7.8,9.5,6.6,16.5
			c-1.5,8.5-6.5,15.3-15,20.5c-5.1,3.1-11,5.3-17.6,6.5l-8.8,50.1c11.1-4,21.2-9.2,30.4-15.6c24.6-17.1,39.5-40.7,44.8-70.9
			C634.8,178.7,631.5,160.7,620.8,147.5z M623.6,24.8c-5.7-5.1-12.1-9.5-19.3-13l-8.6,48.7c5.1,1.4,9.6,3.8,13.3,7
			c7,5.9,9.9,13.4,8.7,22.4h27.1C649.1,63.2,642.1,41.5,623.6,24.8z"/>
		<path class="st3" d="M620.8,147.5c-7.8-9.7-20-17.2-36.6-22.4l-11,62.2c7.7,2.1,13.4,4.5,17.1,7.2c5.6,4,7.8,9.5,6.6,16.5
			c-1.5,8.5-6.5,15.3-15,20.5c-5.1,3.1-11,5.3-17.6,6.5l-8.8,50.1c11.1-4,21.2-9.2,30.4-15.6c24.6-17.1,39.5-40.7,44.8-70.9
			C634.8,178.7,631.5,160.7,620.8,147.5z M623.6,24.8c-5.7-5.1-12.1-9.5-19.3-13l-8.6,48.7c5.1,1.4,9.6,3.8,13.3,7
			c7,5.9,9.9,13.4,8.7,22.4h27.1C649.1,63.2,642.1,41.5,623.6,24.8z"/>
	</g>
	<g>
		<path class="st4" d="M772.2,218.4c-13.3,0-24.3,3.6-33,10.8c-8.7,7.2-14.1,16.8-16.2,28.7c-2.1,11.9-0.1,21.5,6.1,28.8
			c6.2,7.3,15.9,11,29.2,11h0.1l14-79.3H772.2z"/>
		<path class="st5" d="M790.8,218.4c-13.3,0-24.3,3.6-33,10.8c-8.7,7.2-14.1,16.8-16.2,28.7c-2.1,11.9-0.1,21.5,6.1,28.8
			c6.2,7.3,15.9,11,29.2,11h0.1l14-79.3H790.8z"/>
		<path class="st3" d="M765.8,297.3c4.5-0.5,8.8-1.5,12.7-3l26.6-26.6c1.2-3,2.1-6.3,2.7-9.7c0.2-1.1,0.3-2.1,0.4-3.1L765.8,297.3z"
			/>
		<path class="st3" d="M739.6,294.3c2.3,1,4.7,1.7,7.4,2.3l59.4-59.4c-0.9-2.2-2-4.3-3.4-6.3L739.6,294.3z"/>
		<path class="st3" d="M724.8,279.9c1,2.2,2.2,4.2,3.6,6.1l63.7-63.7c-2.2-1-4.6-1.9-7.2-2.5L724.8,279.9z"/>
		<path class="st3" d="M724.7,250.9c-0.7,2.3-1.3,4.6-1.8,7.1c-0.3,1.7-0.5,3.4-0.6,5l44.3-44.3c-4.3,0.3-8.2,1.1-12,2.3
			L724.7,250.9z"/>
		<path class="st7" d="M757.7,229.3c-8.7,7.2-14.1,16.8-16.2,28.7c-2.1,11.9-0.1,21.5,6.1,28.8c3,3.5,6.8,6.1,11.4,8l12.9-73.4
			C766.6,223.1,761.9,225.8,757.7,229.3z"/>
		<path class="st7" d="M757.7,229.3c-8.7,7.2-14.1,16.8-16.2,28.7c-2.1,11.9-0.1,21.5,6.1,28.8c3,3.5,6.8,6.1,11.4,8l12.9-73.4
			C766.6,223.1,761.9,225.8,757.7,229.3z"/>
	</g>
	<g>
		<path class="st4" d="M299.9,679.4H196.8c3,5.9,3.8,13.1,2.3,21.4c-2.2,12.2-8.4,22.1-18.8,29.6c-10.3,7.6-22.9,11.3-37.6,11.3
			c-3.4,0-6.7-0.2-9.7-0.5l-15.5,78.5c3.1,0.2,6.3,0.2,9.5,0.2c45.5,0,84.2-10.3,116.2-30.8c31.9-20.5,50.8-47.2,56.6-79.9
			C301.5,698.4,301.6,688.5,299.9,679.4z"/>
		<path class="st5" d="M331.6,647.7H228.5c3,5.9,3.8,13.1,2.3,21.4c-2.2,12.2-8.4,22.1-18.8,29.6c-10.3,7.6-22.9,11.3-37.6,11.3
			c-3.4,0-6.7-0.2-9.7-0.5L149.1,788c3.1,0.2,6.3,0.2,9.5,0.2c45.5,0,84.2-10.3,116.2-30.8c31.9-20.5,50.8-47.2,56.6-79.9
			C333.2,666.7,333.3,656.8,331.6,647.7z"/>
		<path class="st3" d="M279.6,460.9l-65.4,65.4c2.2,2.1,3.9,4.5,5.2,7.1l67.6-67.6C284.6,464.1,282.1,462.5,279.6,460.9z"/>
		<path class="st3" d="M198.9,701.7l66.8-66.8c-2.7-1.4-5.6-2.6-8.6-3.7l-57.5,57.5c0.4,3.7,0.3,7.7-0.4,12
			C199,701.1,198.9,701.4,198.9,701.7z"/>
		<path class="st3" d="M232.8,626l0.8-4.7c3.9-0.7,7.6-1.6,11.3-2.7l69.9-69.9c0.7-2.8,1.4-5.6,1.9-8.4c0.4-2.3,0.7-4.5,0.9-6.7
			L184.3,667c2.4,1.3,4.6,2.8,6.5,4.6c0.2,0.2,0.4,0.4,0.6,0.6l45.6-45.6C235.6,626.4,234.3,626.2,232.8,626z"/>
		<path class="st3" d="M314.2,500.2L153.3,661h2.6c3.3,0,6.3,0.2,9.2,0.5l151.7-151.7C316.2,506.5,315.3,503.3,314.2,500.2z"/>
		<path class="st3" d="M159.5,593.3h-12.3l-28,28c-0.9,5-1.8,10-2.6,14.9L159.5,593.3z"/>
		<path class="st3" d="M305.6,484.1c-1.7-2.3-3.5-4.6-5.5-6.8l-78.9,78.9c-2.4,11-8.2,19.9-17.2,26.5c-5.2,3.8-11,6.5-17.5,8.2
			L116.4,661h12.3L305.6,484.1z"/>
		<path class="st3" d="M198.1,517.8l65-65c-2.9-1.2-6-2.2-9.2-3.1l-66.4,66.4C191.3,516.4,194.8,517,198.1,517.8z"/>
		<path class="st3" d="M97.6,716.8l-69.9,69.9c0.3,0.2,0.5,0.5,0.7,0.8c1.9,1.8,3.8,3.4,5.8,5l67.3-67.3
			C99.7,722.6,98.4,719.8,97.6,716.8z"/>
		<path class="st3" d="M200.1,441.9c-1.4,0-2.8-0.1-4.2-0.1c-2.7,0-5.4,0-8.1,0.1L70.2,559.5h12.3L200.1,441.9z"/>
		<path class="st3" d="M277.8,758.2l-21.2,21.2C264.8,772.8,271.9,765.7,277.8,758.2z"/>
		<path class="st3" d="M299,675.5c-0.8-3.2-1.8-6.2-3.1-9.2L142.7,819.5c4.6-0.3,9-0.7,13.4-1.1L299,675.5z"/>
		<path class="st3" d="M299,712.4c0.2-1.1,0.5-2.1,0.7-3.2c0.7-3.8,1-7.4,1.3-11l-115,115c5.9-1.4,11.7-3,17.2-4.9L299,712.4z"/>
		<path class="st3" d="M286.4,651.1c-1.9-2.2-3.9-4.3-6.1-6.2L106.2,819c3.8,0.3,7.6,0.6,11.6,0.8L286.4,651.1z"/>
		<path class="st3" d="M161.2,739.4c-4.6,1.2-9.4,1.9-14.5,2.2L75,813.3c3.2,0.9,6.5,1.7,9.8,2.5L161.2,739.4z"/>
		<path class="st3" d="M124.7,554.2c3.1-10.7,9.1-19.5,18.2-26.4c5.2-4,10.9-6.9,17.1-8.9l74-74c-3.5-0.6-7-1.2-10.7-1.6
			L107.1,559.5h12.3L124.7,554.2z"/>
		<path class="st3" d="M160.6,444.5c-5.2,0.8-10.3,1.8-15.3,3l-112,112h12.3L160.6,444.5z"/>
		<path class="st3" d="M106.1,462c-6.6,3.5-12.9,7.3-18.9,11.7c-18.8,13.6-32.9,30.2-42.5,49.7L106.1,462z"/>
		<path class="st3" d="M124,739.6c-3.3-0.8-6.3-1.9-9.1-3.2l-66.1,66.1c2.6,1.5,5.3,2.9,8.2,4.2L124,739.6z"/>
		<path class="st3" d="M88.5,701.2H76.2L11.5,766c1.4,2.6,3,5.1,4.8,7.5L88.5,701.2z"/>
		<path class="st3" d="M14.6,701.2H2.3L1,702.6c-0.6,4.5-0.9,9-1,13.3L14.6,701.2z"/>
		<path class="st3" d="M51.6,701.2H39.3L1.7,738.8c0.6,3.4,1.5,6.7,2.4,9.9L51.6,701.2z"/>
		<path class="st7" d="M299.9,679.4h-72.1c-3.3,7.6-8.5,14.1-15.8,19.4c-4.4,3.2-9,5.7-14.2,7.5c-2.9,9.7-8.7,17.8-17.5,24.1
			c-6.4,4.7-13.7,7.9-21.7,9.7l-9.5,47.9c3.1,0.2,6.3,0.2,9.5,0.2c45.5,0,84.2-10.3,116.2-30.8c2.5-1.6,4.9-3.3,7.3-5
			c9-13,14.8-27.5,17.6-43.3C301.5,698.4,301.6,688.5,299.9,679.4z"/>
		<path class="st3" d="M299.9,679.4h-72.1c-3.3,7.6-8.5,14.1-15.8,19.4c-4.4,3.2-9,5.7-14.2,7.5c-2.9,9.7-8.7,17.8-17.5,24.1
			c-6.4,4.7-13.7,7.9-21.7,9.7l-9.5,47.9c3.1,0.2,6.3,0.2,9.5,0.2c45.5,0,84.2-10.3,116.2-30.8c2.5-1.6,4.9-3.3,7.3-5
			c9-13,14.8-27.5,17.6-43.3C301.5,698.4,301.6,688.5,299.9,679.4z"/>
	</g>
	<g>
		<path class="st4" d="M689.1,568.6L689.1,568.6c-0.3-7.8-1-15.3-2.1-22.4L576.5,656.6c-3.5,13.8-7.5,26-12.1,36.6
			c-2.5,5.7-5.2,11-8.1,15.8c-0.1,0.2-0.2,0.4-0.3,0.5c-0.2,0.3-0.4,0.7-0.6,1c-1,1.6-2,3.1-3,4.6c-2.5,3.6-5,6.8-7.6,9.7
			c-0.3,0.3-0.6,0.6-0.8,0.9c-0.4,0.4-0.7,0.8-1.1,1.2c-0.2,0.2-0.4,0.5-0.7,0.7l0,0c-0.3,0.4-0.7,0.7-1.1,1.1
			c-0.4,0.4-0.8,0.8-1.2,1.1c-0.4,0.4-0.8,0.7-1.2,1.1c-7.8,7.1-16,11.2-24.5,12.4c-1.7,0.2-3.5,0.4-5.3,0.4c0,0,0,0-0.1,0l-1.1,6.1
			l-2.7,15l-5.4,30l-2.7,15l-1.8,10.2h0.3c47.8,0,88.6-16.9,122.4-50.7c28.6-28.6,48.9-66.3,60.7-113.2c0.1-0.3,0.1-0.5,0.2-0.8
			c0.1-0.6,0.3-1.2,0.4-1.8s0.3-1.2,0.4-1.8c1.7-7.1,3.2-14.3,4.5-21.8C688.1,607.6,689.8,587.2,689.1,568.6z"/>
		<path class="st5" d="M626.3,568.6L626.3,568.6c-0.3-7.8-1-15.3-2.1-22.4L513.8,656.6c-3.5,13.8-7.5,26-12.1,36.6
			c-2.5,5.7-5.2,11-8.1,15.8c-0.1,0.2-0.2,0.4-0.3,0.5c-0.2,0.3-0.4,0.7-0.6,1c-1,1.6-2,3.1-3,4.6c-2.5,3.6-5,6.8-7.6,9.7
			c-0.3,0.3-0.6,0.6-0.8,0.9c-0.4,0.4-0.7,0.8-1.1,1.2c-0.2,0.2-0.4,0.5-0.7,0.7l0,0c-0.3,0.4-0.7,0.7-1.1,1.1
			c-0.4,0.4-0.8,0.8-1.2,1.1c-0.4,0.4-0.8,0.7-1.2,1.1c-7.8,7.1-16,11.2-24.5,12.4c-1.7,0.2-3.5,0.4-5.3,0.4c0,0,0,0-0.1,0l-1.1,6.1
			l-2.7,15l-5.4,30l-2.7,15l-1.8,10.2h0.3c47.8,0,88.6-16.9,122.4-50.7c28.6-28.6,48.9-66.3,60.7-113.2c0.1-0.3,0.1-0.5,0.2-0.8
			c0.1-0.6,0.3-1.2,0.4-1.8s0.3-1.2,0.4-1.8c1.7-7.1,3.2-14.3,4.5-21.8C625.4,607.6,627,587.2,626.3,568.6z"/>
		<path class="st3" d="M569.4,442l-8,8L372.5,638.9c0.5-3,0.9-6.1,1.5-9.2c0.3-1.9,0.7-3.8,1.1-5.7l182.1-182.1
			c1.7,0,3.4-0.1,5.1-0.1c0.2,0,0.4,0,0.6,0c0.5,0,1,0,1.5,0h0.1C566.1,441.9,567.7,441.9,569.4,442z"/>
		<path class="st3" d="M413.4,524.1l55.8-55.8c-10.1,6.5-19.7,14.1-28.7,22.9C430.4,501,421.4,512,413.4,524.1z"/>
		<path class="st3" d="M475.8,715.1c-0.6-1.8-1.1-3.7-1.6-5.6l-73,73c1.9,2.2,3.9,4.3,6,6.3l70-70
			C476.8,717.6,476.3,716.4,475.8,715.1z"/>
		<path class="st3" d="M529.8,444.6c-5.4,1-10.7,2.2-15.9,3.6l-125,125c-2.2,5.9-4.2,12.1-6.1,18.4L529.8,444.6z"/>
		<path class="st3" d="M689.2,580.7c0.1-4.2,0.1-8.2-0.1-12.2L564.3,693.4c-3.6,8.2-7.5,15.6-11.9,21.8
			c-11.7,16.9-24.4,26.2-38.1,28.1l-68.8,68.8c3.1,1.1,6.2,2.1,9.4,2.9L689.2,580.7z"/>
		<path class="st3" d="M667.1,492L587,572.1l0,0c-0.2-4-0.5-7.8-1-11.3l76-76c1.2,1.5,2.4,3.1,3.5,4.7c0.4,0.5,0.7,1.1,1.1,1.6
			c0,0,0,0,0,0C666.8,491.5,666.9,491.8,667.1,492z"/>
		<path class="st3" d="M650.2,472l-69.5,69.5l0,0c-1.1-2.5-2.2-4.8-3.4-6.9c0-0.1-0.1-0.1-0.1-0.2c-0.2-0.3-0.4-0.6-0.6-0.9
			c0-0.1-0.1-0.1-0.1-0.2l67.1-67.1C645.8,468.1,648,470,650.2,472z"/>
		<path class="st3" d="M644.9,735.9c5.6-8.7,10.8-17.9,15.4-27.7l-99.6,99.6c8.7-3.5,17-7.8,25.1-12.8L644.9,735.9z"/>
		<path class="st3" d="M601.9,446.4L553.3,495L369,679.4c0.1-4.2,0.2-8.5,0.5-12.8L556,480l35.7-35.7
			C595.2,444.9,598.6,445.6,601.9,446.4z"/>
		<path class="st3" d="M685.6,621.2c0.7-4.8,1.4-9.5,1.9-14.2L475.8,818.8c3.7,0.4,7.5,0.7,11.4,0.9L685.6,621.2z"/>
		<path class="st3" d="M493.3,739.6c-2.4-1.4-4.7-3.4-6.7-5.6l-65.7,65.7c2.5,1.7,5,3.2,7.6,4.7L493.3,739.6z"/>
		<path class="st3" d="M471.2,688c-0.2-3.8-0.2-7.9-0.1-12.2l-84.9,84.9c1.4,2.7,2.9,5.3,4.5,7.8L471.2,688z"/>
		<path class="st3" d="M675.2,668.6c1.6-5.5,3.2-11.1,4.5-16.8L512.3,819.2c4.8-0.4,9.5-1,14.1-1.8L675.2,668.6z"/>
		<path class="st3" d="M679.5,516.6L585,611c0-0.1,0-0.1,0-0.2c0.6-4.7,1.1-9.2,1.4-13.5l89.4-89.4c1.3,2.8,2.5,5.6,3.6,8.6
			C679.5,516.5,679.5,516.5,679.5,516.6z"/>
		<path class="st3" d="M687,546L576.6,656.4c0.2-0.6,0.3-1.3,0.5-1.9c1.1-4.5,2.1-9.1,3.1-13.9l0.1-0.1l104.9-104.9
			C685.8,539,686.4,542.5,687,546z"/>
		<path class="st3" d="M481.5,603.8c1.5-6.1,3.2-11.8,5-17.3L369.8,703.1c0.3,3.7,0.8,7.4,1.3,11L481.5,603.8z"/>
		<path class="st3" d="M473.1,649.1c0.6-4.6,1.3-9.4,2.1-14.4l-99.7,99.7c0.9,3.2,1.9,6.2,3,9.3L473.1,649.1z"/>
		<path class="st3" d="M628.6,456.6l-64.9,64.9l0,0c-2-1.1-4.2-1.9-6.5-2.5c-0.1,0-0.1,0-0.2,0c-0.3-0.1-0.6-0.2-1-0.2
			c-0.5-0.1-1.1-0.2-1.7-0.3l65.8-65.8C623.1,453.9,625.9,455.2,628.6,456.6z"/>
	</g>
	<g>
		<path class="st3" d="M846.7,715.1c-0.7-2.1-1.4-4.4-1.9-6.8l-73.4,73.4c1.9,2.2,3.9,4.3,6,6.3l70.3-70.3
			C847.4,716.8,847,716.1,846.7,715.1z"/>
		<path class="st3" d="M852.9,601.7c1.6-6.2,3.3-12,5.1-17.4L740.6,701.7c0.3,3.8,0.8,7.4,1.3,11L852.9,601.7z"/>
		<path class="st3" d="M923.9,518.4c3.4,0.4,6.6,1.3,9.6,2.7l64.9-64.9c-2.7-1.4-5.5-2.7-8.4-3.9L923.9,518.4z"/>
		<path class="st3" d="M844.2,647.4c0.6-4.7,1.3-9.5,2.2-14.5L746.1,733.2c0.9,3.2,1.9,6.3,3,9.4L844.2,647.4z"/>
		<path class="st3" d="M1056.8,619.4c0.7-4.8,1.3-9.5,1.7-14.1L845.3,818.6c3.7,0.4,7.4,0.8,11.3,1L1056.8,619.4z"/>
		<path class="st3" d="M903.4,735.9c-6.3,4.4-12.9,6.8-19.8,7.5l-68.3,68.3c3,1.1,6.1,2.1,9.3,3L903.4,735.9z"/>
		<path class="st3" d="M842,686.5c-0.2-3.9-0.2-8,0-12.3l-85.5,85.5c1.4,2.7,2.9,5.3,4.5,7.8L842,686.5z"/>
		<path class="st3" d="M956.6,559.6c0.6,3.5,1,7.1,1.2,11.1l79.6-79.6c-1.7-2.5-3.4-4.8-5.2-7.1L956.6,559.6z"/>
		<path class="st3" d="M863.3,739c-2.4-1.5-4.6-3.4-6.6-5.7l-65.9,65.9c2.4,1.7,4.9,3.3,7.5,4.8L863.3,739z"/>
		<path class="st3" d="M946.7,532.6c1.6,2.3,3.1,5,4.4,7.9l69.2-69.2c-2.2-2-4.4-3.9-6.7-5.6L946.7,532.6z"/>
		<path class="st3" d="M957.5,595.7c-0.3,4.4-0.8,8.9-1.3,13.6l93.8-93.8c-1.1-3-2.4-5.8-3.7-8.6L957.5,595.7z"/>
		<path class="st3" d="M951.4,638.7c-1.1,5.4-2.2,10.7-3.4,15.7l109.7-109.7c-0.6-3.5-1.2-7-2-10.3L951.4,638.7z"/>
		<path class="st3" d="M1060.1,579.2c0-4.1,0-8.2-0.2-12.1L936.4,690.6c-3.9,9.4-8.3,17.6-13.1,24.5c-0.9,1.2-1.7,2.3-2.6,3.5
			L1060.1,579.2z"/>
		<path class="st3" d="M971.5,446.1c-3.3-0.8-6.7-1.5-10.2-2.1L740.5,664.9c-0.3,4.4-0.5,8.7-0.6,12.9L971.5,446.1z"/>
		<path class="st3" d="M1018.4,731.7c5.1-8.3,9.8-17.1,14-26.3L929.1,808.7c8.2-3.1,16.1-6.9,23.7-11.4L1018.4,731.7z"/>
		<path class="st3" d="M1046.7,666.5c1.6-5.4,3-11,4.4-16.7L881.6,819.3c4.7-0.4,9.4-0.9,13.9-1.6L1046.7,666.5z"/>
		<path class="st3" d="M744.8,629.7c-0.4,2.5-0.8,4.9-1.2,7.4l195.1-195.1c-1.9-0.1-3.7-0.1-5.7-0.1c-2.2,0-4.4,0.1-6.7,0.1
			L746.3,622.2C745.8,624.7,745.3,627.2,744.8,629.7z"/>
		<path class="st3" d="M760.7,570.8c-2.3,6-4.4,12.2-6.3,18.6l144.5-144.5c-5.5,1-10.9,2.3-16.2,3.9L760.7,570.8z"/>
		<path class="st3" d="M787.4,519.4l48.1-48.1c-8.4,5.8-16.5,12.4-24.2,19.9C802.6,499.7,794.6,509.1,787.4,519.4z"/>
	</g>
	<g>
		<path class="st4" d="M1333.3,610.6l-76.9,82.6l50.9,116.8h116.9L1333.3,610.6z M1195.4,810l11.1-63.2l-58.8,63.2H1195.4z"/>
		<path class="st5" d="M1276.1,610.6l-76.9,82.6l50.9,116.8H1367L1276.1,610.6z M1138.1,810l11.1-63.2l-58.8,63.2H1138.1z"/>
		<polygon class="st3" points="1384.5,722.7 1304.3,802.9 1307.4,810 1309.5,810 1388.3,731.2 		"/>
		<polygon class="st3" points="1136.2,577 1257.9,455.2 1258.6,451.8 1249.1,451.8 1138.8,562 		"/>
		<polygon class="st3" points="1146.7,517.2 1144.1,532.1 1224.5,451.8 1212.2,451.8 		"/>
		<polygon class="st3" points="1250,500.1 1252.7,485.1 1130.9,606.9 1128.3,621.8 		"/>
		<polygon class="st3" points="1154.6,472.4 1152,487.3 1187.5,451.8 1175.2,451.8 		"/>
		<polygon class="st3" points="1365.2,680.4 1361.3,672 1281.8,751.5 1285.6,760 		"/>
		<polygon class="st3" points="1376.7,705.8 1372.9,697.4 1293.1,777.2 1296.8,785.7 		"/>
		<polygon class="st3" points="1349.7,646.6 1270.6,725.7 1274.4,734.3 1353.6,655.1 		"/>
		<path class="st3" d="M1202.6,769.1l2.6-14.9l-55.8,55.8c3.8,0,7.9,0,12.3,0L1202.6,769.1z"/>
		<path class="st3" d="M1197.3,799l-10.9,10.9c2.9,0,5.9,0,9,0L1197.3,799z"/>
		<polygon class="st3" points="1399.9,756.5 1396,748.1 1334.1,810 1346.4,810 		"/>
		<polygon class="st3" points="1423,807.3 1419.2,798.8 1408,810 1420.3,810 		"/>
		<polygon class="st3" points="1411.5,781.9 1407.6,773.4 1371.1,810 1383.4,810 		"/>
		<polygon class="st3" points="1409.2,451.8 1396.9,451.8 1107.2,741.4 1104.6,756.4 		"/>
		<polygon class="st3" points="1263.2,708.6 1342,629.7 1338.2,621.3 1259.4,700 		"/>
		<polygon class="st3" points="1234.2,589.8 1236.9,574.8 1115.1,696.6 1112.5,711.5 		"/>
		<polygon class="st3" points="1242.1,544.9 1244.8,530 1123,651.7 1120.4,666.7 		"/>
		<path class="st3" d="M1251.9,682.8l204.9-204.9l24.4-26.2h-10.5L1112.5,810c4.3,0,8.4,0,12.3,0l85.7-85.7L1251.9,682.8z"/>
		<polygon class="st3" points="1446.1,451.8 1433.8,451.8 1099.3,786.3 1096.6,801.2 		"/>
		<path class="st3" d="M1294.9,651.9l-38.5,41.3l50.9,116.8h59.6L1294.9,651.9z"/>
		<path class="st3" d="M1294.9,651.9l-38.5,41.3l50.9,116.8h59.6L1294.9,651.9z"/>
	</g>
	<line class="st8" x1="687.1" y1="546.1" x2="576.5" y2="656.6"/>
	<path class="st3" d="M576.5,656.6c-3.5,13.8-7.5,26-12.1,36.6c-2.5,5.7-5.2,11-8.1,15.8c-0.1,0.2-0.2,0.4-0.3,0.5
		c-0.2,0.3-0.4,0.7-0.6,1c-1,1.6-2,3.1-3,4.6c-2.5,3.6-5,6.8-7.6,9.7c-0.3,0.3-0.6,0.6-0.8,0.9c-0.4,0.4-0.7,0.8-1.1,1.2
		c-0.2,0.2-0.4,0.5-0.7,0.7l0,0c-0.3,0.4-0.7,0.7-1.1,1.1c-0.4,0.4-0.8,0.8-1.2,1.1c-0.4,0.4-0.8,0.7-1.2,1.1
		c-7.8,7.1-16,11.2-24.5,12.4c-1.7,0.2-3.5,0.4-5.3,0.4c0,0,0,0-0.1,0l-1.1,6.1l-2.7,15l-5.4,30l-2.4,13.2
		c21.1-8.4,40.4-21.3,57.7-38.8c28.6-28.6,48.9-66.3,60.7-113.2c0.1-0.3,0.1-0.5,0.2-0.8c0.1-0.6,0.3-1.2,0.4-1.8s0.3-1.2,0.4-1.8
		c1.7-7.1,3.2-14.3,4.5-21.8c1.3-7.3,2.3-14.4,3.1-21.4L576.5,656.6z"/>
	<path class="st3" d="M576.5,656.6c-3.5,13.8-7.5,26-12.1,36.6c-2.5,5.7-5.2,11-8.1,15.8c-0.1,0.2-0.2,0.4-0.3,0.5
		c-0.2,0.3-0.4,0.7-0.6,1c-1,1.6-2,3.1-3,4.6c-2.5,3.6-5,6.8-7.6,9.7c-0.3,0.3-0.6,0.6-0.8,0.9c-0.4,0.4-0.7,0.8-1.1,1.2
		c-0.2,0.2-0.4,0.5-0.7,0.7l0,0c-0.3,0.4-0.7,0.7-1.1,1.1c-0.4,0.4-0.8,0.8-1.2,1.1c-0.4,0.4-0.8,0.7-1.2,1.1
		c-7.8,7.1-16,11.2-24.5,12.4c-1.7,0.2-3.5,0.4-5.3,0.4c0,0,0,0-0.1,0l-1.1,6.1l-2.7,15l-5.4,30l-2.4,13.2
		c21.1-8.4,40.4-21.3,57.7-38.8c28.6-28.6,48.9-66.3,60.7-113.2c0.1-0.3,0.1-0.5,0.2-0.8c0.1-0.6,0.3-1.2,0.4-1.8s0.3-1.2,0.4-1.8
		c1.7-7.1,3.2-14.3,4.5-21.8c1.3-7.3,2.3-14.4,3.1-21.4L576.5,656.6z"/>
	<path class="st3" d="M947.6,656.6c-3.5,13.8-7.5,26-12.1,36.6c-2.5,5.7-5.2,11-8.1,15.8c-0.1,0.2-0.2,0.4-0.3,0.5
		c-0.2,0.3-0.4,0.7-0.6,1c-1,1.6-2,3.1-3,4.6c-2.5,3.6-5,6.8-7.6,9.7c-0.3,0.3-0.6,0.6-0.8,0.9c-0.4,0.4-0.7,0.8-1.1,1.2
		c-0.2,0.2-0.4,0.5-0.7,0.7l0,0c-0.3,0.4-0.7,0.7-1.1,1.1c-0.4,0.4-0.8,0.8-1.2,1.1c-0.4,0.4-0.8,0.7-1.2,1.1
		c-7.8,7.1-16,11.2-24.5,12.4c-1.7,0.2-3.5,0.4-5.3,0.4c0,0,0,0-0.1,0l-1.1,6.1l-2.7,15l-5.4,30l-2.4,13.2
		c21.1-8.4,40.4-21.3,57.7-38.8c28.6-28.6,48.9-66.3,60.7-113.2c0.1-0.3,0.1-0.5,0.2-0.8c0.1-0.6,0.3-1.2,0.4-1.8s0.3-1.2,0.4-1.8
		c1.7-7.1,3.2-14.3,4.5-21.8c1.3-7.3,2.3-14.4,3.1-21.4L947.6,656.6z"/>
</g>
</svg>
