<?xml version="1.0" encoding="utf-8"?>
<!-- Generator: Adobe Illustrator 22.1.0, SVG Export Plug-In . SVG Version: 6.00 Build 0)  -->
<svg version="1.1" xmlns="http://www.w3.org/2000/svg" xmlns:xlink="http://www.w3.org/1999/xlink" x="0px" y="0px"
	 viewBox="0 0 109.8 51.3" style="enable-background:new 0 0 109.8 51.3;" xml:space="preserve">
<style type="text/css">
	.st0{display:none;}
	.st1{display:inline;fill:#FFFFFF;}
	.st2{display:inline;}
	.st3{fill:#2D4234;}
	.st4{fill:#74EDBD;}
	.st5{fill:#77E5E8;}
</style>
<g id="圖層_1" class="st0">
	<path class="st1" d="M123.5,119.3H-18c-17,0-30.7-13.8-30.7-30.7V-53c0-17,13.8-30.7,30.7-30.7h141.5c17,0,30.7,13.8,30.7,30.7
		V88.6C154.2,105.5,140.5,119.3,123.5,119.3z"/>
	<g class="st2">
		<polygon class="st3" points="86.7,47.4 60.6,73.5 61.6,75.8 62.3,75.8 88,50.1 		"/>
		<polygon class="st3" points="5.9,-0.1 45.5,-39.7 45.7,-40.8 42.6,-40.8 6.7,-4.9 		"/>
		<polygon class="st3" points="9.3,-19.5 8.4,-14.7 34.6,-40.8 30.6,-40.8 		"/>
		<polygon class="st3" points="42.9,-25.1 43.8,-30 4.2,9.7 3.3,14.5 		"/>
		<polygon class="st3" points="11.9,-34.1 11,-29.3 22.6,-40.8 18.6,-40.8 		"/>
		<polygon class="st3" points="80.4,33.6 79.2,30.9 53.3,56.8 54.5,59.5 		"/>
		<polygon class="st3" points="84.2,41.9 82.9,39.1 57,65.1 58.2,67.9 		"/>
		<polygon class="st3" points="75.4,22.6 49.7,48.4 50.9,51.2 76.7,25.4 		"/>
		<path class="st3" d="M27.5,62.5l0.9-4.9L10.2,75.8c1.3,0,2.6,0,4,0L27.5,62.5z"/>
		<path class="st3" d="M25.8,72.2l-3.6,3.6c1,0,1.9,0,2.9,0L25.8,72.2z"/>
		<polygon class="st3" points="91.7,58.4 90.5,55.7 70.3,75.8 74.3,75.8 		"/>
		<polygon class="st3" points="99.3,74.9 98,72.2 94.4,75.8 98.4,75.8 		"/>
		<polygon class="st3" points="95.5,66.7 94.3,63.9 82.4,75.8 86.4,75.8 		"/>
		<polygon class="st3" points="94.8,-40.8 90.8,-40.8 -3.6,53.5 -4.4,58.3 		"/>
		<polygon class="st3" points="47.2,42.8 72.9,17.1 71.6,14.4 46,40 		"/>
		<polygon class="st3" points="37.8,4.1 38.7,-0.8 -1,38.9 -1.9,43.7 		"/>
		<polygon class="st3" points="40.4,-10.5 41.2,-15.4 1.6,24.3 0.7,29.1 		"/>
		<path class="st3" d="M43.6,34.4l66.7-66.7l7.9-8.5h-3.4L-1.8,75.8c1.4,0,2.7,0,4,0l27.9-27.9L43.6,34.4z"/>
		<polygon class="st3" points="106.8,-40.8 102.8,-40.8 -6.1,68.1 -7,73 		"/>
		<path class="st4" d="M70.1,10.9L45,37.8l16.6,38h38.1L70.1,10.9z M25.1,75.8l3.6-20.6L9.6,75.8H25.1z"/>
		<path class="st5" d="M51.4,10.9l-25,26.9l16.6,38H81L51.4,10.9z M6.5,75.8l3.6-20.6L-9,75.8H6.5z"/>
		<path class="st3" d="M57.6,24.3L45,37.8l16.6,38H81L57.6,24.3z"/>
		<path class="st3" d="M57.6,24.3L45,37.8l16.6,38H81L57.6,24.3z"/>
	</g>
</g>
<g id="圖層_3" class="st0">
</g>
<g id="圖層_2">
	<g>
		<path class="st3" d="M44.4,51.3L0,0h18.5l36.4,41L91.3,0h18.5L65.4,51.3H44.4z"/>
	</g>
</g>
</svg>
