<?xml version="1.0" encoding="utf-8"?>
<!-- Generator: Adobe Illustrator 22.1.0, SVG Export Plug-In . SVG Version: 6.00 Build 0)  -->
<svg version="1.1" id="圖層_1" xmlns="http://www.w3.org/2000/svg" xmlns:xlink="http://www.w3.org/1999/xlink" x="0px" y="0px"
	 viewBox="0 0 140 140.1" style="enable-background:new 0 0 140 140.1;" xml:space="preserve">
<style type="text/css">
	.st0{fill:#2D4234;}
	.st1{fill:#74EDBD;}
	.st2{fill:none;stroke:#2D4234;stroke-width:3;stroke-linecap:round;stroke-linejoin:round;stroke-miterlimit:10;}
	.st3{fill:#77E5E8;}
	.st4{fill:#EAEA75;}
	.st5{fill:#B4D1D1;}
</style>
<path class="st0" d="M124.7,30.3c-0.5,0-0.9-0.2-1.2-0.6C105.1,5.3,72.6-3.6,44.3,8.2c-0.8,0.3-1.6,0-2-0.8c-0.3-0.8,0-1.6,0.8-2
	c29.5-12.3,63.5-3,82.7,22.5c0.5,0.7,0.4,1.6-0.3,2.1C125.3,30.2,125,30.3,124.7,30.3z"/>
<path class="st0" d="M70.1,140.1c-2,0-3.9-0.1-5.9-0.2c-0.8-0.1-1.4-0.8-1.4-1.6c0.1-0.8,0.8-1.4,1.6-1.4c13.1,1.1,26.1-1.7,37.7-8
	c15.5-8.5,26.9-22.6,32-39.5c5.1-17,3.3-34.9-5-50.5c-0.4-0.7-0.1-1.6,0.6-2c0.7-0.4,1.6-0.1,2,0.6c8.7,16.3,10.5,35.1,5.2,52.8
	c-5.3,17.7-17.2,32.4-33.4,41.3C93.3,137.1,81.8,140.1,70.1,140.1z"/>
<path class="st0" d="M47.6,136.3c-0.2,0-0.3,0-0.5-0.1C30.7,130.5,17,119,8.6,103.7c-13.3-24.3-11-54.3,5.9-76.3
	c0.5-0.7,1.4-0.8,2.1-0.3c0.7,0.5,0.8,1.4,0.3,2.1c-16.2,21.1-18.4,49.7-5.6,73c8,14.6,21.1,25.7,36.9,31.1c0.8,0.3,1.2,1.1,0.9,1.9
	C48.8,135.9,48.3,136.3,47.6,136.3z"/>
<path class="st1" d="M21.3,23.3c-0.4,0-0.8-0.1-1.1-0.4c-0.6-0.6-0.6-1.5,0-2.1c4.9-5,10.5-9.1,16.7-12.4c0.7-0.4,1.6-0.1,2,0.6
	c0.4,0.7,0.1,1.6-0.6,2c-5.9,3.1-11.2,7.1-15.9,11.9C22.1,23.2,21.7,23.3,21.3,23.3z"/>
<path class="st2" d="M105.3,128.7"/>
<circle class="st1" cx="64.9" cy="114.6" r="1.8"/>
<circle class="st1" cx="118.2" cy="87.8" r="1.8"/>
<circle class="st1" cx="93.1" cy="55.9" r="1.8"/>
<circle class="st1" cx="73.2" cy="13.5" r="1.8"/>
<path class="st3" d="M22.8,76.2c-0.1,0-0.3-0.1-0.4-0.2l-3.2-3.9c-0.2-0.2-0.1-0.5,0.1-0.7c0.2-0.2,0.5-0.1,0.7,0.1l3.2,3.9
	c0.2,0.2,0.1,0.5-0.1,0.7C23,76.2,22.9,76.2,22.8,76.2z"/>
<path class="st3" d="M19.2,75.9c-0.1,0-0.3-0.1-0.4-0.2c-0.2-0.2-0.1-0.5,0.1-0.7l3.9-3.2c0.2-0.2,0.5-0.1,0.7,0.1
	c0.2,0.2,0.1,0.5-0.1,0.7l-3.9,3.2C19.5,75.8,19.3,75.9,19.2,75.9z"/>
<path class="st3" d="M51.5,53.5c-0.1,0-0.3-0.1-0.4-0.2L48,49.5c-0.2-0.2-0.1-0.5,0.1-0.7c0.2-0.2,0.5-0.1,0.7,0.1l3.2,3.9
	c0.2,0.2,0.1,0.5-0.1,0.7C51.8,53.5,51.6,53.5,51.5,53.5z"/>
<path class="st3" d="M48,53.2c-0.1,0-0.3-0.1-0.4-0.2c-0.2-0.2-0.1-0.5,0.1-0.7l3.9-3.2c0.2-0.2,0.5-0.1,0.7,0.1
	c0.2,0.2,0.1,0.5-0.1,0.7l-3.9,3.2C48.2,53.1,48.1,53.2,48,53.2z"/>
<path class="st4" d="M17,102.9l2.7,5.4c0.2,0.4,0.6,0.7,1,0.7l6,0.9c1.1,0.2,1.5,1.5,0.7,2.2l-4.3,4.2c-0.3,0.3-0.4,0.7-0.4,1.2l1,6
	c0.2,1.1-0.9,1.9-1.9,1.4l-5.3-2.8c-0.4-0.2-0.8-0.2-1.2,0l-5.3,2.8c-1,0.5-2.1-0.3-1.9-1.4l1-6c0.1-0.4-0.1-0.9-0.4-1.2l-4.3-4.2
	c-0.8-0.8-0.3-2.1,0.7-2.2l6-0.9c0.4-0.1,0.8-0.3,1-0.7l2.7-5.4C15.2,101.9,16.6,101.9,17,102.9z"/>
<path class="st3" d="M73.8,103.3H80c0.6,0,1-0.5,1-1v-5.2c0-0.6-0.5-1-1-1h-1.3H67.2h-1.3c-0.6,0-1,0.5-1,1v5.2c0,0.6,0.5,1,1,1h6.2
	H73.8z"/>
<rect x="62.5" y="78.2" transform="matrix(0.5167 -0.8562 0.8562 0.5167 -29.676 105.9229)" class="st5" width="32.9" height="2"/>
<path class="st0" d="M78.5,102.5H62.4c-0.8,0-1.5-0.7-1.5-1.5v-7.2c0-0.8,0.7-1.5,1.5-1.5h16.1c0.8,0,1.5,0.7,1.5,1.5v7.2
	C80,101.9,79.3,102.5,78.5,102.5z M63.9,99.5H77v-4.2H63.9V99.5z"/>
<path class="st0" d="M75,95.3c-0.3,0-0.5-0.1-0.8-0.2c-0.7-0.4-0.9-1.4-0.5-2.1l15-24.8L70.4,34.4L52.1,68.3l15,24.8
	c0.4,0.7,0.2,1.6-0.5,2.1c-0.7,0.4-1.6,0.2-2.1-0.5L49.1,69.1c-0.3-0.5-0.3-1,0-1.5l20-37c0.3-0.5,0.8-0.8,1.3-0.8l0,0
	c0.6,0,1.1,0.3,1.3,0.8l20,37c0.3,0.5,0.2,1,0,1.5L76.3,94.6C76,95.1,75.5,95.3,75,95.3z"/>
<path class="st0" d="M70.4,64.2c-0.8,0-1.5-0.7-1.5-1.5V31.3c0-0.8,0.7-1.5,1.5-1.5s1.5,0.7,1.5,1.5v31.4
	C71.9,63.5,71.3,64.2,70.4,64.2z"/>
<circle class="st3" cx="72.1" cy="68.3" r="3.4"/>
<path class="st0" d="M70.5,71.9c-2.6,0-4.8-2.1-4.8-4.8c0-2.6,2.1-4.8,4.8-4.8c2.6,0,4.8,2.1,4.8,4.8C75.2,69.7,73.1,71.9,70.5,71.9
	z M70.5,64.3c-1.5,0-2.8,1.2-2.8,2.8s1.2,2.8,2.8,2.8s2.8-1.2,2.8-2.8S72,64.3,70.5,64.3z"/>
<path class="st1" d="M62.4,96.6c-1.4,0-2.7-0.9-3.1-2.3l0,0c-0.5-1.7,0.5-3.6,2.2-4.1c0.8-0.3,1.7-0.2,2.5,0.3
	c0.8,0.4,1.3,1.1,1.6,1.9c0.5,1.7-0.5,3.6-2.2,4.1C63,96.5,62.7,96.6,62.4,96.6z M60.2,94c0.4,1.2,1.6,1.9,2.8,1.5
	c1.2-0.4,1.9-1.6,1.5-2.8c-0.2-0.6-0.6-1.1-1.1-1.3s-1.2-0.3-1.7-0.2C60.5,91.5,59.8,92.7,60.2,94L60.2,94z"/>
</svg>
