<?xml version="1.0" encoding="utf-8"?>
<!-- Generator: Adobe Illustrator 22.1.0, SVG Export Plug-In . SVG Version: 6.00 Build 0)  -->
<svg version="1.1" id="圖層_1" xmlns="http://www.w3.org/2000/svg" xmlns:xlink="http://www.w3.org/1999/xlink" x="0px" y="0px"
	 viewBox="0 0 140 139.9" style="enable-background:new 0 0 140 139.9;" xml:space="preserve">
<style type="text/css">
	.st0{fill:#2D4234;}
	.st1{fill:#74EDBD;}
	.st2{fill:none;stroke:#2D4234;stroke-width:3;stroke-linecap:round;stroke-linejoin:round;stroke-miterlimit:10;}
	.st3{fill:#77E5E8;}
	.st4{fill:#EAEA75;}
	.st5{fill:#4EC6C6;}
</style>
<path class="st0" d="M67.1,139.9C67.1,139.9,67,139.9,67.1,139.9c-32-1.3-58.9-24.1-65.6-55.3c-0.2-0.8,0.3-1.6,1.2-1.8
	c0.8-0.2,1.6,0.3,1.8,1.2c6.3,29.9,32.1,51.7,62.7,53c0.8,0,1.5,0.7,1.4,1.6C68.5,139.3,67.9,139.9,67.1,139.9z"/>
<path class="st0" d="M1.6,75c-0.8,0-1.5-0.6-1.5-1.4c-0.9-18.5,5.3-36.2,17.6-50.1C30,9.6,47,1.4,65.4,0.2
	c13.8-0.9,27.4,2.2,39.3,9.1c0.7,0.4,1,1.3,0.6,2c-0.4,0.7-1.3,1-2,0.6C91.8,5.3,78.8,2.3,65.6,3.1c-17.7,1.2-33.9,9.1-45.7,22.3
	C8.2,38.7,2.2,55.7,3.1,73.4C3.1,74.2,2.5,74.9,1.6,75C1.6,75,1.6,75,1.6,75z"/>
<path class="st0" d="M101.6,132.3c-0.5,0-1.1-0.3-1.3-0.8c-0.4-0.7-0.1-1.6,0.6-2c23.6-12.3,37.7-37.3,35.9-63.8
	c-1.1-16.6-8.3-32.2-20.3-43.8c-0.6-0.6-0.6-1.5,0-2.1c0.6-0.6,1.5-0.6,2.1,0c12.5,12.1,20.1,28.4,21.2,45.8
	c1.8,27.7-12.9,53.9-37.5,66.7C102.1,132.2,101.9,132.3,101.6,132.3z"/>
<path class="st1" d="M73.8,139.9c-0.8,0-1.5-0.6-1.5-1.4c0-0.8,0.6-1.5,1.4-1.6c6.7-0.4,13.2-1.7,19.5-4c0.8-0.3,1.6,0.1,1.9,0.9
	c0.3,0.8-0.1,1.6-0.9,1.9C87.7,138.1,80.9,139.5,73.8,139.9C73.9,139.9,73.9,139.9,73.8,139.9z"/>
<path class="st2" d="M105.3,128.7"/>
<circle class="st1" cx="93.4" cy="31.8" r="1.8"/>
<circle class="st1" cx="33.9" cy="33.5" r="1.8"/>
<circle class="st1" cx="43.1" cy="73.1" r="1.8"/>
<circle class="st1" cx="43.2" cy="119.8" r="1.8"/>
<path class="st3" d="M116.5,90.2c-0.2,0-0.4-0.1-0.5-0.4l-1.3-4.9c-0.1-0.3,0.1-0.5,0.4-0.6c0.3-0.1,0.5,0.1,0.6,0.4l1.3,4.9
	c0.1,0.3-0.1,0.5-0.4,0.6C116.5,90.1,116.5,90.2,116.5,90.2z"/>
<path class="st3" d="M113.4,88.3c-0.2,0-0.4-0.1-0.5-0.4c-0.1-0.3,0.1-0.5,0.4-0.6l4.9-1.3c0.3-0.1,0.5,0.1,0.6,0.4
	c0.1,0.3-0.1,0.5-0.4,0.6l-4.9,1.3C113.5,88.3,113.4,88.3,113.4,88.3z"/>
<path class="st3" d="M80.8,98.6c-0.2,0-0.4-0.1-0.5-0.4l-1.3-4.9c-0.1-0.3,0.1-0.5,0.4-0.6c0.3-0.1,0.5,0.1,0.6,0.4l1.3,4.9
	c0.1,0.3-0.1,0.5-0.4,0.6C80.9,98.6,80.8,98.6,80.8,98.6z"/>
<path class="st3" d="M77.7,96.8c-0.2,0-0.4-0.1-0.5-0.4c-0.1-0.3,0.1-0.5,0.4-0.6l4.9-1.3c0.3-0.1,0.5,0.1,0.6,0.4
	c0.1,0.3-0.1,0.5-0.4,0.6l-4.9,1.3C77.8,96.8,77.8,96.8,77.7,96.8z"/>
<path class="st4" d="M17,102.9l2.7,5.4c0.2,0.4,0.6,0.7,1,0.7l6,0.9c1.1,0.2,1.5,1.5,0.7,2.2l-4.3,4.2c-0.3,0.3-0.4,0.7-0.4,1.2l1,6
	c0.2,1.1-0.9,1.9-1.9,1.4l-5.3-2.8c-0.4-0.2-0.8-0.2-1.2,0l-5.3,2.8c-1,0.5-2.1-0.3-1.9-1.4l1-6c0.1-0.4-0.1-0.9-0.4-1.2l-4.3-4.2
	c-0.8-0.8-0.3-2.1,0.7-2.2l6-0.9c0.4-0.1,0.8-0.3,1-0.7l2.7-5.4C15.2,101.9,16.6,101.9,17,102.9z"/>
<path class="st3" d="M77.5,52.8l-9,17.4l-1.5,3l-1.2,2.3H54.4c-1.2,0-2.3-1-2.8-2.3c-0.2-0.5-0.2-1-0.2-1.5v-15c0-2.1,1.4-3.9,3-3.9
	H77.5z"/>
<path class="st5" d="M91.8,56.7v15c0,2.1-1.3,3.9-3,3.9h-23l1.2-2.3l1.5-3l9-17.4h11.3C90.5,52.8,91.8,54.5,91.8,56.7z"/>
<path class="st0" d="M44.9,55.7v9.2c0,0,0.1,0,0.1,0L44.9,55.7C44.9,55.7,44.9,55.7,44.9,55.7z M85.3,52.8v15c0,1.4-0.8,2.4-1.5,2.4
	H51.4v1.5c0,0.5,0.1,1.1,0.2,1.5h32.1c2.5,0,4.5-2.4,4.5-5.4v-15H85.3z"/>
<path class="st0" d="M45,55.7v9.2c0,0-0.1,0-0.1,0c-1.2-0.2-2.1-1.2-2.1-2.5v-4.2C42.7,56.9,43.7,55.9,45,55.7
	C44.9,55.7,44.9,55.7,45,55.7z"/>
<path class="st0" d="M90.4,58.2v4.2c0,1.3-1,2.4-2.2,2.5v-9.2C89.4,55.8,90.4,56.9,90.4,58.2z"/>
<path class="st0" d="M92.1,81.9h-4.4c-0.8,0-1.5-0.7-1.5-1.5s0.7-1.5,1.5-1.5h4.4c0.6,0,1.1-0.5,1.1-1.1v-15c0-0.6-0.5-1.1-1.1-1.1
	h-2.6c-0.8,0-1.5-0.7-1.5-1.5s0.7-1.5,1.5-1.5h2.6c2.2,0,4.1,1.8,4.1,4.1v15C96.2,80.1,94.4,81.9,92.1,81.9z"/>
<path class="st0" d="M66.6,95.5c-0.8,0-1.5-0.7-1.5-1.5V81.8c0-1.5,1.7-2.9,3.5-2.9h18.6c0.8,0,1.5,0.7,1.5,1.5s-0.7,1.5-1.5,1.5
	H68.5c-0.2,0-0.4,0.1-0.5,0.2V94C68.1,94.8,67.4,95.5,66.6,95.5z"/>
<path class="st0" d="M72.7,95.5H59.9c-0.8,0-1.5-0.7-1.5-1.5s0.7-1.5,1.5-1.5h12.8c0.8,0,1.5,0.7,1.5,1.5S73.5,95.5,72.7,95.5z"/>
<path class="st0" d="M81,95.5h-3.7c-0.8,0-1.5-0.7-1.5-1.5s0.7-1.5,1.5-1.5H81c0.8,0,1.5,0.7,1.5,1.5S81.8,95.5,81,95.5z"/>
<path class="st0" d="M66.3,113.7c-3.3,0-6-2.7-6-6c0-0.8,0.7-1.5,1.5-1.5s1.5,0.7,1.5,1.5c0,1.7,1.4,3,3,3s3-1.4,3-3
	c0-0.8,0.7-1.5,1.5-1.5s1.5,0.7,1.5,1.5C72.4,111,69.7,113.7,66.3,113.7z"/>
<path class="st0" d="M61.8,109.2c0,0-0.1,0-0.1,0c-0.8-0.1-1.4-0.8-1.4-1.6l1.3-13.7c0.1-0.8,0.8-1.4,1.6-1.4
	c0.8,0.1,1.4,0.8,1.4,1.6l-1.3,13.7C63.2,108.6,62.6,109.2,61.8,109.2z"/>
<path class="st0" d="M70.9,109.2c-0.8,0-1.4-0.6-1.5-1.4l-1.3-13.7c-0.1-0.8,0.5-1.6,1.4-1.6c0.8-0.1,1.6,0.5,1.6,1.4l1.3,13.7
	c0.1,0.8-0.5,1.6-1.4,1.6C71,109.1,70.9,109.2,70.9,109.2z"/>
<circle class="st0" cx="66.2" cy="107.5" r="1.4"/>
<path class="st3" d="M61.2,30.4c-0.8,0-1.5-0.7-1.5-1.5v-4.2c0-0.8,0.7-1.5,1.5-1.5s1.5,0.7,1.5,1.5v4.2
	C62.7,29.7,62,30.4,61.2,30.4z"/>
<path class="st0" d="M61.3,50.5c0,0-0.1,0-0.1,0s-0.1,0-0.1,0H61.3z"/>
<path class="st3" d="M69.6,32.4c-0.8,0-1.5-0.7-1.5-1.5v-0.6c0-0.8,0.7-1.5,1.5-1.5s1.5,0.7,1.5,1.5v0.6
	C71.1,31.7,70.5,32.4,69.6,32.4z"/>
<path class="st3" d="M69.6,41.9c-0.8,0-1.5-0.7-1.5-1.5v-2.6c0-0.8,0.7-1.5,1.5-1.5s1.5,0.7,1.5,1.5v2.6
	C71.1,41.2,70.5,41.9,69.6,41.9z"/>
<path class="st0" d="M88.3,52.8h-3c0-1.4-0.8-2.3-1.5-2.3H49.4c-0.7,0-1.5,1-1.5,2.4v15c0,1.4,0.8,2.4,1.5,2.4h2v1.5
	c0,0.5,0.1,1.1,0.2,1.5h-2.3c-2.5,0-4.5-2.4-4.5-5.4v-3c0,0,0.1,0,0.1,0v-9.2c0,0-0.1,0-0.1,0v-2.8c0-2.9,2-5.4,4.5-5.4h2.4
	c0.9,0,1.6-0.7,1.6-1.6v-4.7c0-0.8,0.7-1.5,1.5-1.5c0.8,0,1.5,0.7,1.5,1.5v4.7c0,0.9,0.7,1.6,1.6,1.6h0c0.9,0,1.6-0.7,1.6-1.6V34.1
	c0-0.8,0.7-1.5,1.5-1.5c0.8,0,1.5,0.7,1.5,1.5v11.7c0,0.9,0.7,1.6,1.6,1.6h2.2c0.9,0,1.6-0.7,1.6-1.6v-1c0-0.8,0.7-1.5,1.5-1.5
	c0.8,0,1.5,0.7,1.5,1.5v1c0,0.9,0.7,1.6,1.6,1.6h2c0.9,0,1.6-0.7,1.6-1.6v-2.3c0-0.8,0.7-1.5,1.5-1.5c0.8,0,1.5,0.7,1.5,1.5v2.3
	c0,0.9,0.7,1.6,1.6,1.6h2.7C86.2,47.5,88.2,49.9,88.3,52.8z"/>
<path class="st0" d="M69.7,50.5c0,0-0.1,0-0.1,0s-0.1,0-0.1,0H69.7z"/>
<path class="st3" d="M77.9,40.1c-0.8,0-1.5-0.7-1.5-1.5v-2.3c0-0.8,0.7-1.5,1.5-1.5s1.5,0.7,1.5,1.5v2.3
	C79.4,39.5,78.7,40.1,77.9,40.1z"/>
<path class="st0" d="M78,50.5c0,0-0.1,0-0.1,0s-0.1,0-0.1,0H78z"/>
<path class="st1" d="M86.7,55.4c-0.2,0-0.3,0-0.5,0c-0.9-0.1-1.6-0.6-2.2-1.3c-0.5-0.7-0.7-1.6-0.6-2.4c0.3-1.8,1.9-3,3.7-2.8
	c0.9,0.1,1.6,0.6,2.2,1.3s0.7,1.6,0.6,2.4c-0.1,0.9-0.6,1.6-1.3,2.2C88.1,55.2,87.4,55.4,86.7,55.4z M86.7,49.9
	c-1.1,0-2.1,0.8-2.3,1.9c-0.1,0.6,0.1,1.2,0.4,1.7c0.4,0.5,0.9,0.8,1.5,0.9c0.6,0.1,1.2-0.1,1.7-0.4c0.5-0.4,0.8-0.9,0.9-1.5
	c0,0,0,0,0,0c0.2-1.2-0.7-2.4-1.9-2.6C86.9,49.9,86.8,49.9,86.7,49.9z"/>
</svg>
