<?xml version="1.0" encoding="utf-8"?>
<!-- Generator: Adobe Illustrator 22.1.0, SVG Export Plug-In . SVG Version: 6.00 Build 0)  -->
<svg version="1.1" id="圖層_1" xmlns="http://www.w3.org/2000/svg" xmlns:xlink="http://www.w3.org/1999/xlink" x="0px" y="0px"
	 viewBox="0 0 219.2 201" style="enable-background:new 0 0 219.2 201;" xml:space="preserve">
<style type="text/css">
	.st0{fill:#74EDBD;}
	.st1{fill:#77E5E8;}
	.st2{fill:#2D4234;}
</style>
<g>
	<path class="st0" d="M136.3,89.1l-43.1,46.3l28.6,65.5h65.6L136.3,89.1z M58.9,201l6.2-35.4l-33,35.4H58.9z"/>
	<path class="st1" d="M104.1,89.1L61,135.5L89.6,201h65.6L104.1,89.1z M26.7,201l6.2-35.4L0,201H26.7z"/>
	<polygon class="st2" points="164.9,152 119.9,197 121.7,201 122.9,201 167.1,156.8 	"/>
	<polygon class="st2" points="25.6,70.3 94,1.9 94.3,0 89,0 27.1,61.9 	"/>
	<polygon class="st2" points="31.5,36.7 30.1,45.1 75.2,0 68.3,0 	"/>
	<polygon class="st2" points="89.5,27.1 91,18.7 22.7,87 21.2,95.4 	"/>
	<polygon class="st2" points="36,11.6 34.5,19.9 54.5,0 47.5,0 	"/>
	<polygon class="st2" points="154.1,128.3 152,123.6 107.4,168.2 109.5,173 	"/>
	<polygon class="st2" points="160.6,142.5 158.4,137.8 113.7,182.6 115.8,187.4 	"/>
	<polygon class="st2" points="145.5,109.3 101.1,153.7 103.2,158.5 147.6,114.1 	"/>
	<path class="st2" d="M62.9,178.1l1.5-8.4L33.1,201c2.2,0,4.5,0,6.9,0L62.9,178.1z"/>
	<path class="st2" d="M59.9,194.9l-6.1,6.1c1.6,0,3.3,0,5.1,0L59.9,194.9z"/>
	<polygon class="st2" points="173.6,171 171.4,166.3 136.7,201 143.6,201 	"/>
	<polygon class="st2" points="186.6,199.5 184.4,194.7 178.2,201 185.1,201 	"/>
	<polygon class="st2" points="180.1,185.2 177.9,180.5 157.4,201 164.3,201 	"/>
	<polygon class="st2" points="178.8,0 171.9,0 9.4,162.5 7.9,170.9 	"/>
	<polygon class="st2" points="96.9,144.1 141.1,99.9 139,95.1 94.8,139.3 	"/>
	<polygon class="st2" points="80.6,77.4 82.1,69.1 13.8,137.4 12.3,145.8 	"/>
	<polygon class="st2" points="85.1,52.3 86.6,43.9 18.2,112.2 16.8,120.6 	"/>
	<path class="st2" d="M90.6,129.7l115-115L219.2,0h-5.9l-201,201c2.4,0,4.7,0,6.9,0l48.1-48.1L90.6,129.7z"/>
	<polygon class="st2" points="199.5,0 192.6,0 4.9,187.7 3.5,196.1 	"/>
	<path class="st2" d="M114.7,112.3l-21.6,23.2l28.6,65.5h33.5L114.7,112.3z"/>
	<path class="st2" d="M114.7,112.3l-21.6,23.2l28.6,65.5h33.5L114.7,112.3z"/>
</g>
</svg>
