<?xml version="1.0" encoding="utf-8"?>
<!-- Generator: Adobe Illustrator 22.1.0, SVG Export Plug-In . SVG Version: 6.00 Build 0)  -->
<svg version="1.1" id="圖層_1" xmlns="http://www.w3.org/2000/svg" xmlns:xlink="http://www.w3.org/1999/xlink" x="0px" y="0px"
	 viewBox="0 0 1033 153.8" style="enable-background:new 0 0 1033 153.8;" xml:space="preserve">
<style type="text/css">
	.st0{fill:#74EDBD;}
	.st1{fill:#77E5E8;}
	.st2{enable-background:new    ;}
	.st3{fill:#2D4234;}
	.st4{fill:#2E3144;}
	.st5{fill:none;}
</style>
<path class="st0" d="M861.7,51.5L861.7,51.5c-0.1-3.2-0.4-6.2-0.8-9.1l-45,45c-1.4,5.6-3.1,10.6-4.9,14.9c-1,2.3-2.1,4.5-3.3,6.4
	c0,0.1-0.1,0.1-0.1,0.2c-0.1,0.1-0.2,0.3-0.2,0.4c-0.4,0.7-0.8,1.3-1.2,1.9c-1,1.5-2,2.8-3.1,4c-0.1,0.1-0.2,0.3-0.3,0.4
	c-0.1,0.2-0.3,0.3-0.4,0.5c-0.1,0.1-0.2,0.2-0.3,0.3l0,0c-0.1,0.1-0.3,0.3-0.4,0.4c-0.2,0.2-0.3,0.3-0.5,0.5
	c-0.2,0.1-0.3,0.3-0.5,0.4c-3.2,2.9-6.5,4.6-10,5c-0.7,0.1-1.4,0.1-2.1,0.1c0,0,0,0,0,0l-0.4,2.5l-1.1,6.1l-2.2,12.2l-1.1,6.1
	l-0.7,4.1h0.1c19.4,0,36-6.9,49.8-20.6c11.6-11.6,19.9-27,24.7-46c0-0.1,0.1-0.2,0.1-0.3c0.1-0.2,0.1-0.5,0.2-0.7
	c0.1-0.2,0.1-0.5,0.2-0.7c0.7-2.9,1.3-5.8,1.8-8.9C861.4,67.4,862,59.1,861.7,51.5z"/>
<path class="st1" d="M836.2,51.5L836.2,51.5c-0.1-3.2-0.4-6.2-0.8-9.1l-45,45c-1.4,5.6-3.1,10.6-4.9,14.9c-1,2.3-2.1,4.5-3.3,6.4
	c0,0.1-0.1,0.1-0.1,0.2c-0.1,0.1-0.2,0.3-0.2,0.4c-0.4,0.7-0.8,1.3-1.2,1.9c-1,1.5-2,2.8-3.1,4c-0.1,0.1-0.2,0.3-0.3,0.4
	c-0.1,0.2-0.3,0.3-0.4,0.5c-0.1,0.1-0.2,0.2-0.3,0.3l0,0c-0.1,0.1-0.3,0.3-0.4,0.4c-0.2,0.2-0.3,0.3-0.5,0.5
	c-0.2,0.1-0.3,0.3-0.5,0.4c-3.2,2.9-6.5,4.6-10,5c-0.7,0.1-1.4,0.1-2.1,0.1c0,0,0,0,0,0l-0.4,2.5l-1.1,6.1l-2.2,12.2l-1.1,6.1
	l-0.7,4.1h0.1c19.4,0,36-6.9,49.8-20.6c11.6-11.6,19.9-27,24.7-46c0-0.1,0.1-0.2,0.1-0.3c0.1-0.2,0.1-0.5,0.2-0.7
	c0.1-0.2,0.1-0.5,0.2-0.7c0.7-2.9,1.3-5.8,1.8-8.9C835.8,67.4,836.5,59.1,836.2,51.5z"/>
<g class="st2">
	<path class="st0" d="M136.8,7L91.2,87.6h30L135.3,63h1.9L122,148.7h36.7L183.7,7H136.8z"/>
	<path class="st1" d="M118.3,7L72.7,87.6h30L116.8,63h1.9l-15.1,85.7h36.7L165.3,7H118.3z"/>
	<path class="st3" d="M160.9,136.6l1-5.9l-18.1,18.1c1.5,0,3.1,0,4.9,0L160.9,136.6z"/>
	<polygon class="st3" points="123.6,139.8 122.6,145.7 167.2,101.1 168.2,95.2 	"/>
	<path class="st3" d="M164,118.8l1-5.9l-35.8,35.8c1.7,0,3.3,0,4.9,0L164,118.8z"/>
	<path class="st3" d="M158.8,148.4l-0.3,0.3c0.1,0,0.2,0,0.3,0L158.8,148.4z"/>
	<polygon class="st3" points="176.5,47.9 177.6,42 133,86.6 132,92.5 	"/>
	<polygon class="st3" points="74.4,18.6 73.5,14.5 13,75.1 11.9,81 	"/>
	<polygon class="st3" points="24.4,10.1 27.5,7 25,7 	"/>
	<polygon class="st3" points="77,30.6 76.1,26.6 9.9,92.8 8.8,98.7 	"/>
	<polygon class="st3" points="56.7,7 51.8,7 19.2,39.6 18.2,45.5 	"/>
	<polygon class="st3" points="71.3,7 66.4,7 16.1,57.4 15.1,63.3 	"/>
	<polygon class="st3" points="87.3,78.7 86.5,74.7 61.7,99.4 62.6,103.4 	"/>
	<polygon class="st3" points="114.2,46.9 107.9,58.1 158.9,7 154.1,7 	"/>
	<polygon class="st3" points="59.1,87.4 60,91.4 84.7,66.6 83.9,62.6 	"/>
	<polygon class="st3" points="173.6,7 168.7,7 95.1,80.6 91.2,87.5 89.2,87.5 89,86.7 64.4,111.3 65.3,115.3 	"/>
	<polygon class="st3" points="42.1,7 37.2,7 22.4,21.9 21.3,27.8 	"/>
	<polygon class="st3" points="45.1,101.5 0.5,146 0,148.7 2.7,148.7 44,107.4 	"/>
	<polygon class="st3" points="126.4,78.6 69.7,135.3 69.8,135.9 74,135.9 119.9,90 	"/>
	<polygon class="st3" points="173.4,65.6 174.5,59.7 129.9,104.3 128.8,110.2 	"/>
	<polygon class="st3" points="100.3,124.1 106.8,112.8 83.7,135.9 88.6,135.9 	"/>
	<polygon class="st3" points="136.1,68.8 135.1,74.7 179.7,30.1 180.7,24.2 	"/>
	<polygon class="st3" points="133.3,13.2 127,24.4 144.3,7 139.5,7 	"/>
	<polygon class="st3" points="50.3,71.9 51.3,66 6.7,110.6 5.7,116.5 	"/>
	<polygon class="st3" points="182.8,12.4 183.7,7 183.3,7 67,123.3 67.9,127.3 	"/>
	<polygon class="st3" points="56.5,75.4 57.3,79.4 82.1,54.6 81.3,50.6 	"/>
	<polygon class="st3" points="53.8,63.5 54.7,67.5 79.6,42.6 78.7,38.6 	"/>
	<polygon class="st3" points="47.1,89.6 48.2,83.7 3.6,128.3 2.6,134.2 	"/>
	<polygon class="st3" points="37.8,142.8 38.8,136.9 27,148.7 31.9,148.7 	"/>
	<polygon class="st3" points="40.9,125.1 41.9,119.2 12.4,148.7 17.3,148.7 	"/>
	<polygon class="st3" points="170.3,83.4 171.3,77.4 126.7,122 125.7,127.9 	"/>
	<path class="st4" d="M136.8,7L91.2,87.6h11.5L116.8,63h1.9l-4.3,24.6h6.9L135.3,63h1.9L122,148.7h18.2L165.2,7H136.8z"/>
	<path class="st3" d="M136.8,7L91.2,87.6h11.5L116.8,63h1.9l-4.3,24.6h6.9L135.3,63h1.9L122,148.7h18.2L165.2,7H136.8z"/>
</g>
<g>
	<path class="st0" d="M309.7,77.1c-5.4-6.6-14.7-11.2-28.2-13.6l-12.2-2.3L263,97.1c3.9,1.1,6.7,2.3,8.6,3.6c2.8,2,3.9,4.8,3.3,8.3
		c-0.8,4.2-3.3,7.7-7.5,10.3c-2.6,1.6-5.5,2.7-8.8,3.3l-5.3,29.9c15.5-1.1,28.4-5.2,38.9-12.6c12.3-8.6,19.8-20.4,22.5-35.5
		C316.7,92.8,315,83.7,309.7,77.1z M311,15.6c-7.7-7-18.2-11-31.5-12.2l-5.3,30.1c2.6,0.7,4.8,1.9,6.7,3.5c3.5,3,5,6.7,4.4,11.2
		h36.4C323.9,34.8,320.3,24,311,15.6z"/>
	<path class="st1" d="M286.8,77.1c-5.4-6.6-14.7-11.2-28.2-13.6l-12.2-2.3l-6.3,35.9c3.9,1.1,6.7,2.3,8.6,3.6c2.8,2,3.9,4.8,3.3,8.3
		c-0.8,4.2-3.3,7.7-7.5,10.3c-2.6,1.6-5.5,2.7-8.8,3.3l-5.3,29.9c15.5-1.1,28.4-5.2,38.9-12.6c12.3-8.6,19.8-20.4,22.5-35.5
		C293.8,92.8,292.2,83.7,286.8,77.1z M288.2,15.6c-7.7-7-18.2-11-31.5-12.2l-5.3,30.1c2.6,0.7,4.8,1.9,6.7,3.5c3.5,3,5,6.7,4.4,11.2
		h36.4C301,34.8,297.5,24,288.2,15.6z"/>
	<path class="st3" d="M230.5,107.8c-0.6,0-1.2,0-1.8,0l-29,29c0.7,0.9,1.5,1.7,2.4,2.5l28.5-28.5
		C230.4,109.8,230.4,108.8,230.5,107.8z"/>
	<path class="st3" d="M233.7,117.3l-26.3,26.3c1,0.6,2,1.2,3,1.8l26-26c-0.3-0.2-0.6-0.4-0.9-0.6
		C234.9,118.4,234.3,117.8,233.7,117.3z"/>
	<path class="st3" d="M247.6,122.9c-1.5-0.1-2.9-0.4-4.2-0.7l-26.2,26.2c1.2,0.4,2.4,0.8,3.7,1.2L247.6,122.9z"/>
	<path class="st3" d="M235.2,91.5l30.9-30.9l-3-0.6c-0.4-0.1-0.7-0.1-1.1-0.2l-30.6,30.6C232.6,90.8,233.9,91.2,235.2,91.5z"/>
	<path class="st3" d="M214,107.8l-19.8,19.8c0.4,1.2,0.9,2.3,1.5,3.4l23.2-23.2C217.2,107.8,215.6,107.8,214,107.8z"/>
	<path class="st3" d="M199.4,107.8l-7.3,7.3c0,1.6,0.1,3.1,0.2,4.6l11.9-11.9C202.8,107.8,201.1,107.8,199.4,107.8z"/>
	<path class="st3" d="M286.5,64.6l-30.9,30.9l0.4,0.1c1.3,0.2,2.5,0.5,3.6,0.8l30.7-30.7C289.1,65.2,287.8,64.9,286.5,64.6z"/>
	<path class="st3" d="M242.3,152.6c0.9,0,1.9,0,2.8,0c0.7,0,1.4,0,2.1,0l67-67c-0.4-1.2-0.8-2.4-1.4-3.5L242.3,152.6z"/>
	<path class="st3" d="M267.2,98.5c1.3,0.5,2.4,1,3.3,1.6l30.2-30.2c-1-0.6-2.1-1.1-3.2-1.6L267.2,98.5z"/>
	<path class="st3" d="M302.8,48.3h4.9l14.1-14.1c-0.2-1.3-0.6-2.6-1-3.9L302.8,48.3z"/>
	<path class="st3" d="M288.2,48.3h4.9l24.7-24.7c-0.6-1-1.2-2-2-2.9L288.2,48.3z"/>
	<path class="st3" d="M317.4,48.3h4.3c0.3-1.7,0.4-3.3,0.5-4.9L317.4,48.3z"/>
	<path class="st3" d="M273.8,33.4c1.3,0.3,2.4,0.8,3.5,1.3l25.1-25.1c-1.1-0.6-2.2-1.1-3.3-1.6L273.8,33.4z"/>
	<path class="st3" d="M204.6,58.7c0,1.6,0.1,3.1,0.3,4.6l60-60c-1.8,0.1-3.6,0.3-5.4,0.5L204.6,58.7z"/>
	<polygon class="st3" points="243.3,93.1 247.4,93.9 278.4,62.9 274.3,62.1 	"/>
	<path class="st3" d="M206.9,71.1c0.5,1.1,1,2.2,1.6,3.3l70.9-70.9c-1.5-0.1-3-0.2-4.6-0.3L206.9,71.1z"/>
	<path class="st3" d="M259.1,33.5c1.8-0.4,3.7-0.7,5.7-0.8l27-27c-1.3-0.3-2.6-0.6-3.9-0.9L259.1,33.5z"/>
	<path class="st3" d="M245.4,47.1L212.6,80c0.8,0.8,1.6,1.6,2.5,2.4L246,51.4C245.5,50.1,245.3,48.7,245.4,47.1z"/>
	<path class="st3" d="M220.9,86.3c1,0.6,2.1,1.1,3.3,1.6l30.1-30.1c-1.3-0.5-2.4-1-3.4-1.5L220.9,86.3z"/>
	<path class="st3" d="M257.6,122.6l-28.8,28.8c1.4,0.2,2.8,0.4,4.3,0.6l31.3-31.3C262.3,121.6,260.1,122.2,257.6,122.6z"/>
	<path class="st3" d="M284.6,42.1L311,15.6c0,0,0,0,0,0c-0.9-0.8-1.7-1.5-2.7-2.2L282.8,39C283.6,40,284.2,41,284.6,42.1z"/>
	<path class="st3" d="M207.8,41c-0.8,2.2-1.4,4.5-1.9,6.8l41.5-41.5c-2.6,0.7-5.1,1.6-7.5,2.6L207.8,41z"/>
	<path class="st3" d="M274.9,108.9c-0.1,0.6-0.3,1.2-0.4,1.7l34.4-34.4c-0.7-0.8-1.6-1.6-2.5-2.4l-31.6,31.6
		C275.1,106.5,275.1,107.7,274.9,108.9z"/>
	<path class="st3" d="M276.2,147.8c2.9-1,5.8-2.2,8.5-3.6l25.4-25.4c1.2-2.5,2.2-5.1,3-7.8L276.2,147.8z"/>
	<path class="st3" d="M263.2,151.2L315.3,99c0.1-1.7,0.2-3.4,0.1-5L257.5,152C259.4,151.8,261.3,151.5,263.2,151.2z"/>
	<path class="st3" d="M286.8,77.1c-3.9-4.9-10-8.6-18.3-11.2L263,97.1c3.9,1.1,6.7,2.3,8.6,3.6c2.8,2,3.9,4.8,3.3,8.3
		c-0.8,4.2-3.3,7.7-7.5,10.3c-2.6,1.6-5.5,2.7-8.8,3.3l-4.4,25.1c5.6-2,10.6-4.6,15.3-7.8c12.3-8.6,19.8-20.4,22.5-35.5
		C293.8,92.8,292.2,83.7,286.8,77.1z M288.2,15.6c-2.9-2.6-6.1-4.7-9.7-6.5l-4.3,24.4c2.6,0.7,4.8,1.9,6.7,3.5c3.5,3,5,6.7,4.4,11.2
		h13.6C301,34.8,297.5,24,288.2,15.6z"/>
	<path class="st3" d="M286.8,77.1c-3.9-4.9-10-8.6-18.3-11.2L263,97.1c3.9,1.1,6.7,2.3,8.6,3.6c2.8,2,3.9,4.8,3.3,8.3
		c-0.8,4.2-3.3,7.7-7.5,10.3c-2.6,1.6-5.5,2.7-8.8,3.3l-4.4,25.1c5.6-2,10.6-4.6,15.3-7.8c12.3-8.6,19.8-20.4,22.5-35.5
		C293.8,92.8,292.2,83.7,286.8,77.1z M288.2,15.6c-2.9-2.6-6.1-4.7-9.7-6.5l-4.3,24.4c2.6,0.7,4.8,1.9,6.7,3.5c3.5,3,5,6.7,4.4,11.2
		h13.6C301,34.8,297.5,24,288.2,15.6z"/>
</g>
<g>
	<path class="st0" d="M362.8,112.7c-6.7,0-12.2,1.8-16.6,5.4c-4.4,3.6-7.1,8.4-8.1,14.4c-1,6,0,10.8,3,14.4c3.1,3.7,8,5.5,14.6,5.5
		h0.1L362.8,112.7L362.8,112.7z"/>
	<path class="st1" d="M372,112.7c-6.7,0-12.2,1.8-16.6,5.4c-4.4,3.6-7.1,8.4-8.1,14.4c-1,6,0,10.8,3,14.4c3.1,3.7,8,5.5,14.6,5.5
		h0.1L372,112.7L372,112.7z"/>
	<path class="st3" d="M359.5,152.2c2.3-0.3,4.4-0.8,6.4-1.5l13.4-13.4c0.6-1.5,1-3.1,1.3-4.9c0.1-0.5,0.2-1,0.2-1.6L359.5,152.2z"/>
	<path class="st3" d="M346.4,150.8c1.1,0.5,2.4,0.9,3.7,1.1l29.8-29.8c-0.4-1.1-1-2.2-1.7-3.1L346.4,150.8z"/>
	<path class="st3" d="M339,143.5c0.5,1.1,1.1,2.1,1.8,3l32-32c-1.1-0.5-2.3-0.9-3.6-1.2L339,143.5z"/>
	<path class="st3" d="M338.9,129c-0.4,1.1-0.7,2.3-0.9,3.5c-0.2,0.9-0.2,1.7-0.3,2.5l22.2-22.2c-2.1,0.2-4.1,0.6-6,1.1L338.9,129z"
		/>
	<path class="st4" d="M355.5,118.1c-4.4,3.6-7.1,8.4-8.1,14.4c-1,6,0,10.8,3,14.4c1.5,1.8,3.4,3.1,5.7,4l6.5-36.8
		C359.9,115,357.6,116.4,355.5,118.1z"/>
	<path class="st4" d="M355.5,118.1c-4.4,3.6-7.1,8.4-8.1,14.4c-1,6,0,10.8,3,14.4c1.5,1.8,3.4,3.1,5.7,4l6.5-36.8
		C359.9,115,357.6,116.4,355.5,118.1z"/>
</g>
<g>
	<path class="st0" d="M552.5,96.6h-41.9c1.2,2.4,1.5,5.3,0.9,8.7c-0.9,5-3.4,9-7.6,12.1c-4.2,3.1-9.3,4.6-15.3,4.6
		c-1.4,0-2.7-0.1-4-0.2l-6.3,31.9c1.3,0.1,2.5,0.1,3.9,0.1c18.5,0,34.3-4.2,47.2-12.5c13-8.4,20.6-19.2,23-32.5
		C553.2,104.3,553.2,100.3,552.5,96.6z"/>
	<path class="st1" d="M565.4,83.7h-41.9c1.2,2.4,1.5,5.3,0.9,8.7c-0.9,5-3.4,9-7.6,12.1c-4.2,3.1-9.3,4.6-15.3,4.6
		c-1.4,0-2.7-0.1-4-0.2l-6.3,31.9c1.3,0.1,2.5,0.1,3.9,0.1c18.5,0,34.3-4.2,47.2-12.5c13-8.4,20.6-19.2,23-32.5
		C566.1,91.5,566.1,87.4,565.4,83.7z"/>
	<path class="st3" d="M544.3,7.8l-26.6,26.6c0.9,0.9,1.6,1.8,2.1,2.9l27.5-27.5C546.3,9.1,545.3,8.4,544.3,7.8z"/>
	<path class="st3" d="M511.4,105.7l27.2-27.2c-1.1-0.6-2.3-1.1-3.5-1.5l-23.4,23.4c0.2,1.5,0.1,3.1-0.2,4.9
		C511.5,105.4,511.4,105.6,511.4,105.7z"/>
	<path class="st3" d="M525.2,74.9l0.3-1.9c1.6-0.3,3.1-0.7,4.6-1.1l28.4-28.4c0.3-1.1,0.6-2.3,0.8-3.4c0.2-0.9,0.3-1.8,0.4-2.7
		l-54.2,54.2c1,0.5,1.9,1.2,2.6,1.9c0.1,0.1,0.2,0.2,0.2,0.3l18.5-18.5C526.4,75.1,525.8,75,525.2,74.9z"/>
	<path class="st3" d="M558.3,23.7l-65.4,65.4h1c1.3,0,2.6,0.1,3.8,0.2l61.7-61.7C559.1,26.3,558.8,25,558.3,23.7z"/>
	<path class="st3" d="M495.4,61.6h-5L479,73c-0.4,2-0.7,4.1-1.1,6.1L495.4,61.6z"/>
	<path class="st3" d="M554.9,17.2c-0.7-0.9-1.4-1.9-2.3-2.8l-32.1,32.1c-1,4.5-3.3,8.1-7,10.8c-2.1,1.5-4.5,2.6-7.1,3.3l-28.5,28.5
		h5L554.9,17.2z"/>
	<path class="st3" d="M511.1,30.9l26.4-26.4c-1.2-0.5-2.5-0.9-3.7-1.3l-27,27C508.4,30.3,509.8,30.6,511.1,30.9z"/>
	<path class="st3" d="M470.2,111.8l-28.4,28.4c0.1,0.1,0.2,0.2,0.3,0.3c0.8,0.7,1.5,1.4,2.4,2l27.4-27.4
		C471.1,114.2,470.6,113.1,470.2,111.8z"/>
	<path class="st3" d="M511.9,0c-0.6,0-1.1,0-1.7,0c-1.1,0-2.2,0-3.3,0.1l-47.8,47.8h5L511.9,0z"/>
	<path class="st3" d="M543.5,128.7l-8.6,8.6C538.3,134.6,541.1,131.8,543.5,128.7z"/>
	<path class="st3" d="M552.1,95c-0.3-1.3-0.7-2.5-1.3-3.7l-62.3,62.3c1.9-0.1,3.7-0.3,5.5-0.5L552.1,95z"/>
	<path class="st3" d="M552.1,110.1c0.1-0.4,0.2-0.9,0.3-1.3c0.3-1.5,0.4-3,0.5-4.5L506.2,151c2.4-0.6,4.7-1.2,7-2L552.1,110.1z"/>
	<path class="st3" d="M547,85.1c-0.8-0.9-1.6-1.7-2.5-2.5l-70.8,70.8c1.5,0.1,3.1,0.2,4.7,0.3L547,85.1z"/>
	<path class="st3" d="M496.1,121c-1.9,0.5-3.8,0.8-5.9,0.9L461,151.1c1.3,0.4,2.6,0.7,4,1L496.1,121z"/>
	<path class="st3" d="M481.3,45.7c1.3-4.3,3.7-7.9,7.4-10.7c2.1-1.6,4.4-2.8,7-3.6l30.1-30.1c-1.4-0.2-2.9-0.5-4.4-0.6l-47.2,47.2h5
		L481.3,45.7z"/>
	<path class="st3" d="M495.9,1.1c-2.1,0.3-4.2,0.7-6.2,1.2l-45.6,45.6h5L495.9,1.1z"/>
	<path class="st3" d="M473.7,8.2c-2.7,1.4-5.2,3-7.7,4.8c-7.6,5.5-13.4,12.3-17.3,20.2L473.7,8.2z"/>
	<path class="st3" d="M481,121.1c-1.3-0.3-2.6-0.8-3.7-1.3l-26.9,26.9c1.1,0.6,2.2,1.2,3.3,1.7L481,121.1z"/>
	<path class="st3" d="M466.5,105.5h-5l-26.3,26.3c0.6,1.1,1.2,2.1,1.9,3.1L466.5,105.5z"/>
	<path class="st3" d="M436.5,105.5h-5l-0.5,0.5c-0.2,1.8-0.4,3.6-0.4,5.4L436.5,105.5z"/>
	<path class="st3" d="M451.5,105.5h-5l-15.3,15.3c0.3,1.4,0.6,2.7,1,4L451.5,105.5z"/>
	<path class="st4" d="M552.5,96.6h-29.3c-1.3,3.1-3.5,5.7-6.4,7.9c-1.8,1.3-3.7,2.3-5.8,3.1c-1.2,4-3.6,7.2-7.1,9.8
		c-2.6,1.9-5.6,3.2-8.8,3.9l-3.9,19.5c1.3,0.1,2.5,0.1,3.9,0.1c18.5,0,34.3-4.2,47.2-12.5c1-0.7,2-1.3,3-2c3.6-5.3,6-11.2,7.2-17.6
		C553.2,104.3,553.2,100.3,552.5,96.6z"/>
	<path class="st3" d="M552.5,96.6h-29.3c-1.3,3.1-3.5,5.7-6.4,7.9c-1.8,1.3-3.7,2.3-5.8,3.1c-1.2,4-3.6,7.2-7.1,9.8
		c-2.6,1.9-5.6,3.2-8.8,3.9l-3.9,19.5c1.3,0.1,2.5,0.1,3.9,0.1c18.5,0,34.3-4.2,47.2-12.5c1-0.7,2-1.3,3-2c3.6-5.3,6-11.2,7.2-17.6
		C553.2,104.3,553.2,100.3,552.5,96.6z"/>
</g>
<g>
	<path class="st0" d="M710.8,51.5L710.8,51.5c-0.1-3.2-0.4-6.2-0.8-9.1l-45,45c-1.4,5.6-3.1,10.6-4.9,14.9c-1,2.3-2.1,4.5-3.3,6.4
		c0,0.1-0.1,0.1-0.1,0.2c-0.1,0.1-0.2,0.3-0.2,0.4c-0.4,0.7-0.8,1.3-1.2,1.9c-1,1.5-2,2.8-3.1,4c-0.1,0.1-0.2,0.3-0.3,0.4
		c-0.1,0.2-0.3,0.3-0.4,0.5c-0.1,0.1-0.2,0.2-0.3,0.3l0,0c-0.1,0.1-0.3,0.3-0.4,0.4c-0.2,0.2-0.3,0.3-0.5,0.5
		c-0.2,0.1-0.3,0.3-0.5,0.4c-3.2,2.9-6.5,4.6-10,5c-0.7,0.1-1.4,0.1-2.1,0.1c0,0,0,0,0,0l-0.4,2.5l-1.1,6.1l-2.2,12.2l-1.1,6.1
		l-0.7,4.1h0.1c19.4,0,36-6.9,49.8-20.6c11.6-11.6,19.9-27,24.7-46c0-0.1,0.1-0.2,0.1-0.3c0.1-0.2,0.1-0.5,0.2-0.7
		c0.1-0.2,0.1-0.5,0.2-0.7c0.7-2.9,1.3-5.8,1.8-8.9C710.4,67.4,711.1,59.1,710.8,51.5z"/>
	<path class="st1" d="M685.3,51.5L685.3,51.5c-0.1-3.2-0.4-6.2-0.8-9.1l-45,45c-1.4,5.6-3.1,10.6-4.9,14.9c-1,2.3-2.1,4.5-3.3,6.4
		c0,0.1-0.1,0.1-0.1,0.2c-0.1,0.1-0.2,0.3-0.2,0.4c-0.4,0.7-0.8,1.3-1.2,1.9c-1,1.5-2,2.8-3.1,4c-0.1,0.1-0.2,0.3-0.3,0.4
		c-0.1,0.2-0.3,0.3-0.4,0.5c-0.1,0.1-0.2,0.2-0.3,0.3l0,0c-0.1,0.1-0.3,0.3-0.4,0.4c-0.2,0.2-0.3,0.3-0.5,0.5
		c-0.2,0.1-0.3,0.3-0.5,0.4c-3.2,2.9-6.5,4.6-10,5c-0.7,0.1-1.4,0.1-2.1,0.1c0,0,0,0,0,0l-0.4,2.5l-1.1,6.1l-2.2,12.2l-1.1,6.1
		l-0.7,4.1h0.1c19.4,0,36-6.9,49.8-20.6c11.6-11.6,19.9-27,24.7-46c0-0.1,0.1-0.2,0.1-0.3c0.1-0.2,0.1-0.5,0.2-0.7
		c0.1-0.2,0.1-0.5,0.2-0.7c0.7-2.9,1.3-5.8,1.8-8.9C684.9,67.4,685.6,59.1,685.3,51.5z"/>
	<path class="st3" d="M662.1,0.1l-3.3,3.3L582,80.2c0.2-1.2,0.4-2.5,0.6-3.7c0.1-0.8,0.3-1.5,0.4-2.3L657.1,0c0.7,0,1.4,0,2.1,0
		c0.1,0,0.2,0,0.2,0c0.2,0,0.4,0,0.6,0h0C660.8,0,661.5,0,662.1,0.1z"/>
	<path class="st3" d="M598.7,33.5l22.7-22.7c-4.1,2.6-8,5.7-11.7,9.3C605.6,24.1,601.9,28.5,598.7,33.5z"/>
	<path class="st3" d="M624.1,111.2c-0.2-0.7-0.4-1.5-0.6-2.3l-29.7,29.7c0.8,0.9,1.6,1.7,2.5,2.6l28.5-28.5
		C624.5,112.2,624.2,111.7,624.1,111.2z"/>
	<path class="st3" d="M646,1.1c-2.2,0.4-4.4,0.9-6.5,1.5l-50.8,50.8c-0.9,2.4-1.7,4.9-2.5,7.5L646,1.1z"/>
	<path class="st3" d="M710.9,56.5c0-1.7,0-3.4,0-5L660,102.3c-1.5,3.3-3.1,6.3-4.8,8.9c-4.8,6.9-9.9,10.7-15.5,11.4l-28,28
		c1.2,0.4,2.5,0.8,3.8,1.2L710.9,56.5z"/>
	<path class="st3" d="M701.9,20.4L669.3,53l0,0c-0.1-1.6-0.2-3.2-0.4-4.6l30.9-30.9c0.5,0.6,1,1.3,1.4,1.9c0.2,0.2,0.3,0.4,0.5,0.7
		c0,0,0,0,0,0C701.7,20.2,701.8,20.3,701.9,20.4z"/>
	<path class="st3" d="M695,12.3l-28.3,28.3l0,0c-0.4-1-0.9-1.9-1.4-2.8c0,0,0,0,0-0.1c-0.1-0.1-0.1-0.2-0.2-0.4c0,0,0-0.1,0-0.1
		L692.3,10C693.2,10.7,694.1,11.5,695,12.3z"/>
	<path class="st3" d="M692.8,119.6c2.3-3.5,4.4-7.3,6.3-11.3l-40.5,40.5c3.5-1.4,6.9-3.2,10.2-5.2L692.8,119.6z"/>
	<path class="st3" d="M675.3,1.9l-19.8,19.8l-75,75c0-1.7,0.1-3.4,0.2-5.2l75.9-75.9L671.2,1C672.6,1.2,674,1.5,675.3,1.9z"/>
	<path class="st3" d="M709.4,73c0.3-2,0.6-3.9,0.8-5.8L624,153.3c1.5,0.2,3,0.3,4.6,0.4L709.4,73z"/>
	<path class="st3" d="M631.2,121.1c-1-0.6-1.9-1.4-2.7-2.3l-26.7,26.7c1,0.7,2,1.3,3.1,1.9L631.2,121.1z"/>
	<path class="st3" d="M622.2,100.1c-0.1-1.6-0.1-3.2-0.1-5l-34.5,34.5c0.6,1.1,1.2,2.1,1.8,3.2L622.2,100.1z"/>
	<path class="st3" d="M705.1,92.3c0.7-2.2,1.3-4.5,1.8-6.8l-68.1,68.1c1.9-0.2,3.9-0.4,5.7-0.7L705.1,92.3z"/>
	<path class="st3" d="M706.9,30.4l-38.4,38.4c0,0,0-0.1,0-0.1c0.2-1.9,0.4-3.7,0.6-5.5l36.4-36.4C706,28,706.4,29.2,706.9,30.4
		C706.9,30.4,706.9,30.4,706.9,30.4z"/>
	<path class="st3" d="M710,42.4l-44.9,44.9c0.1-0.3,0.1-0.5,0.2-0.8c0.4-1.8,0.8-3.7,1.2-5.7l0,0l42.7-42.7
		C709.5,39.5,709.7,40.9,710,42.4z"/>
	<path class="st3" d="M626.4,65.9c0.6-2.5,1.3-4.8,2-7L581,106.3c0.1,1.5,0.3,3,0.5,4.5L626.4,65.9z"/>
	<path class="st3" d="M623,84.3c0.2-1.9,0.5-3.8,0.8-5.9L583.3,119c0.4,1.3,0.8,2.5,1.2,3.8L623,84.3z"/>
	<path class="st3" d="M686.2,6l-26.4,26.4l0,0c-0.8-0.4-1.7-0.8-2.6-1c0,0,0,0-0.1,0c-0.1,0-0.3-0.1-0.4-0.1
		c-0.2-0.1-0.4-0.1-0.7-0.1l26.8-26.8C684,4.9,685.1,5.4,686.2,6z"/>
</g>
<g>
	<path class="st3" d="M774.9,111.2c-0.3-0.9-0.6-1.8-0.8-2.8l-29.8,29.8c0.8,0.9,1.6,1.8,2.4,2.6l28.6-28.6
		C775.2,111.9,775,111.5,774.9,111.2z"/>
	<path class="st3" d="M777.4,65c0.6-2.5,1.3-4.9,2.1-7.1l-47.8,47.8c0.1,1.5,0.3,3,0.5,4.5L777.4,65z"/>
	<path class="st3" d="M806.3,31.1c1.4,0.2,2.7,0.5,3.9,1.1l26.4-26.4c-1.1-0.6-2.2-1.1-3.4-1.6L806.3,31.1z"/>
	<path class="st3" d="M773.9,83.6c0.2-1.9,0.5-3.9,0.9-5.9L734,118.5c0.4,1.3,0.8,2.6,1.2,3.8L773.9,83.6z"/>
	<path class="st3" d="M860.4,72.2c0.3-1.9,0.5-3.8,0.7-5.7l-86.7,86.7c1.5,0.2,3,0.3,4.6,0.4L860.4,72.2z"/>
	<path class="st3" d="M798,119.6c-2.6,1.8-5.3,2.8-8,3l-27.8,27.8c1.2,0.4,2.5,0.9,3.8,1.2L798,119.6z"/>
	<path class="st3" d="M773,99.5c-0.1-1.6-0.1-3.2,0-5l-34.8,34.8c0.6,1.1,1.2,2.2,1.8,3.2L773,99.5z"/>
	<path class="st3" d="M819.6,47.9c0.2,1.4,0.4,2.9,0.5,4.5L852.5,20c-0.7-1-1.4-2-2.1-2.9L819.6,47.9z"/>
	<path class="st3" d="M781.7,120.9c-1-0.6-1.9-1.4-2.7-2.3l-26.8,26.8c1,0.7,2,1.3,3.1,1.9L781.7,120.9z"/>
	<path class="st3" d="M815.6,36.9c0.7,1,1.2,2,1.8,3.2L845.5,12c-0.9-0.8-1.8-1.6-2.7-2.3L815.6,36.9z"/>
	<path class="st3" d="M820,62.6c-0.1,1.8-0.3,3.6-0.5,5.5L857.6,30c-0.5-1.2-1-2.4-1.5-3.5L820,62.6z"/>
	<path class="st3" d="M817.5,80.1c-0.4,2.2-0.9,4.4-1.4,6.4l44.6-44.6c-0.2-1.4-0.5-2.8-0.8-4.2L817.5,80.1z"/>
	<path class="st3" d="M861.7,55.9c0-1.7,0-3.3-0.1-4.9l-50.3,50.3c-1.6,3.8-3.4,7.2-5.3,10c-0.3,0.5-0.7,0.9-1.1,1.4L861.7,55.9z"/>
	<path class="st3" d="M825.7,1.8c-1.4-0.3-2.7-0.6-4.2-0.8l-89.8,89.8c-0.1,1.8-0.2,3.5-0.2,5.2L825.7,1.8z"/>
	<path class="st3" d="M844.7,117.9c2.1-3.4,4-6.9,5.7-10.7l-42,42c3.3-1.3,6.5-2.8,9.7-4.6L844.7,117.9z"/>
	<path class="st3" d="M856.2,91.4c0.6-2.2,1.2-4.5,1.8-6.8l-68.9,68.9c1.9-0.2,3.8-0.4,5.7-0.7L856.2,91.4z"/>
	<path class="st3" d="M733.5,76.4c-0.2,1-0.3,2-0.5,3l79.4-79.4c-0.8,0-1.5-0.1-2.3-0.1c-0.9,0-1.8,0-2.7,0.1l-73.3,73.3
		C733.9,74.4,733.7,75.4,733.5,76.4z"/>
	<path class="st3" d="M739.9,52.5c-0.9,2.4-1.8,5-2.6,7.6l58.8-58.8c-2.2,0.4-4.4,0.9-6.6,1.6L739.9,52.5z"/>
	<path class="st3" d="M750.8,31.6L770.4,12c-3.4,2.4-6.7,5-9.8,8.1C757,23.6,753.7,27.4,750.8,31.6z"/>
</g>
<g>
	<path class="st0" d="M972.8,68.7l-31.3,33.6l20.7,47.5h47.5L972.8,68.7z M916.7,149.7l4.5-25.7l-23.9,25.7H916.7z"/>
	<path class="st1" d="M949.6,68.7l-31.3,33.6l20.7,47.5h47.5L949.6,68.7z M893.5,149.7L898,124l-23.9,25.7H893.5z"/>
	<polygon class="st3" points="993.6,114.2 961,146.9 962.3,149.7 963.2,149.7 995.2,117.7 	"/>
	<polygon class="st3" points="892.7,55 942.2,5.5 942.4,4 938.6,4 893.7,48.9 	"/>
	<polygon class="st3" points="896.9,30.7 895.9,36.7 928.6,4 923.6,4 	"/>
	<polygon class="st3" points="939,23.7 940,17.6 890.5,67.1 889.4,73.2 	"/>
	<polygon class="st3" points="900.2,12.4 899.1,18.5 913.5,4 908.5,4 	"/>
	<polygon class="st3" points="985.8,97.1 984.2,93.6 951.9,125.9 953.4,129.4 	"/>
	<polygon class="st3" points="990.5,107.4 988.9,103.9 956.5,136.4 958,139.9 	"/>
	<polygon class="st3" points="979.5,83.3 947.3,115.5 948.9,119 981.1,86.7 	"/>
	<path class="st3" d="M919.7,133.1l1.1-6.1l-22.7,22.7c1.6,0,3.2,0,5,0L919.7,133.1z"/>
	<path class="st3" d="M917.5,145.3l-4.4,4.4c1.2,0,2.4,0,3.7,0L917.5,145.3z"/>
	<polygon class="st3" points="999.9,128 998.3,124.6 973.2,149.7 978.2,149.7 	"/>
	<polygon class="st3" points="1009.3,148.6 1007.8,145.2 1003.2,149.7 1008.2,149.7 	"/>
	<polygon class="st3" points="1004.6,138.3 1003.1,134.9 988.2,149.7 993.2,149.7 	"/>
	<polygon class="st3" points="1003.7,4 998.7,4 880.9,121.9 879.8,127.9 	"/>
	<polygon class="st3" points="944.3,108.5 976.4,76.4 974.8,73 942.8,105 	"/>
	<polygon class="st3" points="932.5,60.2 933.6,54.1 884.1,103.6 883,109.7 	"/>
	<polygon class="st3" points="935.7,41.9 936.8,35.9 887.3,85.4 886.2,91.5 	"/>
	<path class="st3" d="M939.7,98l83.3-83.3L1033,4h-4.3L883,149.7c1.7,0,3.4,0,5,0l34.8-34.9L939.7,98z"/>
	<polygon class="st3" points="1018.7,4 1013.7,4 877.6,140.1 876.6,146.2 	"/>
	<path class="st3" d="M957.2,85.4l-15.6,16.8l20.7,47.5h24.3L957.2,85.4z"/>
	<path class="st3" d="M957.2,85.4l-15.6,16.8l20.7,47.5h24.3L957.2,85.4z"/>
</g>
<line class="st5" x1="710" y1="42.4" x2="665" y2="87.4"/>
<path class="st3" d="M665,87.4c-1.4,5.6-3.1,10.6-4.9,14.9c-1,2.3-2.1,4.5-3.3,6.4c0,0.1-0.1,0.1-0.1,0.2c-0.1,0.1-0.2,0.3-0.2,0.4
	c-0.4,0.7-0.8,1.3-1.2,1.9c-1,1.5-2,2.8-3.1,4c-0.1,0.1-0.2,0.3-0.3,0.4c-0.1,0.2-0.3,0.3-0.4,0.5c-0.1,0.1-0.2,0.2-0.3,0.3l0,0
	c-0.1,0.1-0.3,0.3-0.4,0.4c-0.2,0.2-0.3,0.3-0.5,0.5c-0.2,0.1-0.3,0.3-0.5,0.4c-3.2,2.9-6.5,4.6-10,5c-0.7,0.1-1.4,0.1-2.1,0.1
	c0,0,0,0,0,0l-0.4,2.5l-1.1,6.1l-2.2,12.2l-1,5.4c8.6-3.4,16.4-8.7,23.5-15.8c11.6-11.6,19.9-27,24.7-46c0-0.1,0.1-0.2,0.1-0.3
	c0.1-0.2,0.1-0.5,0.2-0.7c0.1-0.2,0.1-0.5,0.2-0.7c0.7-2.9,1.3-5.8,1.8-8.9c0.5-3,1-5.9,1.3-8.7L665,87.4z"/>
<path class="st3" d="M665,87.4c-1.4,5.6-3.1,10.6-4.9,14.9c-1,2.3-2.1,4.5-3.3,6.4c0,0.1-0.1,0.1-0.1,0.2c-0.1,0.1-0.2,0.3-0.2,0.4
	c-0.4,0.7-0.8,1.3-1.2,1.9c-1,1.5-2,2.8-3.1,4c-0.1,0.1-0.2,0.3-0.3,0.4c-0.1,0.2-0.3,0.3-0.4,0.5c-0.1,0.1-0.2,0.2-0.3,0.3l0,0
	c-0.1,0.1-0.3,0.3-0.4,0.4c-0.2,0.2-0.3,0.3-0.5,0.5c-0.2,0.1-0.3,0.3-0.5,0.4c-3.2,2.9-6.5,4.6-10,5c-0.7,0.1-1.4,0.1-2.1,0.1
	c0,0,0,0,0,0l-0.4,2.5l-1.1,6.1l-2.2,12.2l-1,5.4c8.6-3.4,16.4-8.7,23.5-15.8c11.6-11.6,19.9-27,24.7-46c0-0.1,0.1-0.2,0.1-0.3
	c0.1-0.2,0.1-0.5,0.2-0.7c0.1-0.2,0.1-0.5,0.2-0.7c0.7-2.9,1.3-5.8,1.8-8.9c0.5-3,1-5.9,1.3-8.7L665,87.4z"/>
<path class="st3" d="M816,87.4c-1.4,5.6-3.1,10.6-4.9,14.9c-1,2.3-2.1,4.5-3.3,6.4c0,0.1-0.1,0.1-0.1,0.2c-0.1,0.1-0.2,0.3-0.2,0.4
	c-0.4,0.7-0.8,1.3-1.2,1.9c-1,1.5-2,2.8-3.1,4c-0.1,0.1-0.2,0.3-0.3,0.4c-0.1,0.2-0.3,0.3-0.4,0.5c-0.1,0.1-0.2,0.2-0.3,0.3l0,0
	c-0.1,0.1-0.3,0.3-0.4,0.4c-0.2,0.2-0.3,0.3-0.5,0.5c-0.2,0.1-0.3,0.3-0.5,0.4c-3.2,2.9-6.5,4.6-10,5c-0.7,0.1-1.4,0.1-2.1,0.1
	c0,0,0,0,0,0l-0.4,2.5l-1.1,6.1l-2.2,12.2l-1,5.4c8.6-3.4,16.4-8.7,23.5-15.8c11.6-11.6,19.9-27,24.7-46c0-0.1,0.1-0.2,0.1-0.3
	c0.1-0.2,0.1-0.5,0.2-0.7c0.1-0.2,0.1-0.5,0.2-0.7c0.7-2.9,1.3-5.8,1.8-8.9c0.5-3,1-5.9,1.3-8.7L816,87.4z"/>
</svg>
