<?xml version="1.0" encoding="utf-8"?>
<!-- Generator: Adobe Illustrator 22.1.0, SVG Export Plug-In . SVG Version: 6.00 Build 0)  -->
<svg version="1.1" id="圖層_1" xmlns="http://www.w3.org/2000/svg" xmlns:xlink="http://www.w3.org/1999/xlink" x="0px" y="0px"
	 viewBox="0 0 37.7 38.5" style="enable-background:new 0 0 37.7 38.5;" xml:space="preserve">
<style type="text/css">
	.st0{fill:#74EDBD;}
	.st1{fill:#77E5E8;}
	.st2{fill:#2D4234;}
	.st3{fill:none;}
</style>
<g>
	<polygon class="st0" points="37.6,0 37.7,0 37.7,38.5 10.8,38.5 11,36.8 13.1,24.5 	"/>
	<polygon class="st1" points="37.7,0 37.7,38.5 0,38.5 2.4,24.5 26.9,0 	"/>
	<g>
		<polygon class="st2" points="37.7,22.5 37.7,24.6 23.9,38.5 21.7,38.5 		"/>
		<polygon class="st2" points="37.7,28.7 37.7,30.8 30,38.5 27.9,38.5 		"/>
		<polygon class="st2" points="37.7,16.3 37.7,18.5 17.7,38.5 15.6,38.5 		"/>
		<polygon class="st2" points="37.7,34.8 37.7,36.9 36.2,38.5 34,38.5 		"/>
		<polygon class="st2" points="25.4,0 23.2,0 16.3,7 15.8,9.6 		"/>
		<polygon class="st2" points="37.7,10.2 37.7,12.3 11.5,38.5 10.7,38.5 11,36.9 11,36.8 		"/>
		<polygon class="st2" points="37.7,0 35.5,0 13.6,21.9 13.2,24.5 		"/>
		<polygon class="st2" points="31.5,0 29.4,0 15,14.4 14.5,17 		"/>
		<polygon class="st2" points="37.7,4 37.7,6.2 11.9,32 12.3,29.4 		"/>
	</g>
	<polygon class="st2" points="37.7,0 37.7,38.5 10.8,38.5 11,36.8 13.1,24.5 37.6,0 	"/>
	<polygon class="st2" points="37.7,0 37.7,38.5 10.8,38.5 11,36.8 13.1,24.5 37.6,0 	"/>
</g>
<g>
	<polygon class="st0" points="295,0 292.8,11.4 292.8,11.4 265.8,38.5 255,38.5 255.3,38.2 255.3,0 	"/>
	<polygon class="st1" points="284.2,0 283.9,1.9 283.4,4.5 282.4,9.5 282,11.4 255.3,38.2 255.3,0 	"/>
	<polygon class="st2" points="284.2,0 283.9,1.9 283.4,4.5 282.4,9.5 282,11.4 255.3,38.2 255.3,0 	"/>
	<polygon class="st2" points="284.2,0 283.9,1.9 283.4,4.5 282.4,9.5 282,11.4 255.3,38.2 255.3,0 	"/>
	<g>
		<polygon class="st2" points="292.4,14 292.8,11.4 265.7,38.5 267.9,38.5 		"/>
		<polygon class="st2" points="293.7,6.5 294.2,3.9 259.6,38.5 261.7,38.5 		"/>
		<polygon class="st2" points="291.1,21.4 291.5,18.9 271.9,38.5 274,38.5 		"/>
		<polygon class="st2" points="289.7,28.9 290.2,26.3 278.1,38.5 280.2,38.5 		"/>
		<polygon class="st2" points="287.9,0 283.4,4.5 255.3,32.6 255.3,30.5 283.9,1.9 285.7,0 		"/>
		<polygon class="st2" points="294,0 255.6,38.5 255,38.5 255.3,38.2 255.3,36.6 282.4,9.5 291.9,0 		"/>
		<polygon class="st2" points="257.1,0 255.3,1.8 255.3,0 		"/>
		<polygon class="st2" points="281.7,0 255.3,26.5 255.3,24.3 279.6,0 		"/>
		<polygon class="st2" points="263.2,0 255.3,8 255.3,5.8 261.1,0 		"/>
		<polygon class="st2" points="275.6,0 255.3,20.3 255.3,18.2 273.4,0 		"/>
		<polygon class="st2" points="269.4,0 255.3,14.1 255.3,12 267.3,0 		"/>
	</g>
</g>
<polyline class="st3" points="37.7,38.5 37.7,36.9 37.7,34.8 37.7,30.8 37.7,28.7 37.7,24.6 37.7,22.5 37.7,18.5 37.7,16.3 
	37.7,12.3 37.7,10.2 37.7,6.2 37.7,4 37.7,0 "/>
</svg>
