<?xml version="1.0" encoding="utf-8"?>
<!-- Generator: Adobe Illustrator 22.1.0, SVG Export Plug-In . SVG Version: 6.00 Build 0)  -->
<svg version="1.1" id="圖層_1" xmlns="http://www.w3.org/2000/svg" xmlns:xlink="http://www.w3.org/1999/xlink" x="0px" y="0px"
	 viewBox="0 0 40 38.5" style="enable-background:new 0 0 40 38.5;" xml:space="preserve">
<style type="text/css">
	.st0{fill:#74EDBD;}
	.st1{fill:#77E5E8;}
	.st2{fill:#2D4234;}
	.st3{fill:none;}
</style>
<g>
	<polygon class="st0" points="-217.4,0 -217.3,0 -217.3,38.5 -244.2,38.5 -244,36.8 -241.9,24.5 	"/>
	<polygon class="st1" points="-217.3,0 -217.3,38.5 -255,38.5 -252.6,24.5 -228.1,0 	"/>
	<g>
		<polygon class="st2" points="-217.3,22.5 -217.3,24.6 -231.1,38.5 -233.3,38.5 		"/>
		<polygon class="st2" points="-217.3,28.7 -217.3,30.8 -225,38.5 -227.1,38.5 		"/>
		<polygon class="st2" points="-217.3,16.3 -217.3,18.5 -237.3,38.5 -239.4,38.5 		"/>
		<polygon class="st2" points="-217.3,34.8 -217.3,36.9 -218.8,38.5 -221,38.5 		"/>
		<polygon class="st2" points="-229.6,0 -231.8,0 -238.7,7 -239.2,9.5 		"/>
		<polygon class="st2" points="-217.3,10.2 -217.3,12.3 -243.5,38.5 -244.3,38.5 -244,36.9 -244,36.8 		"/>
		<polygon class="st2" points="-217.3,0 -219.4,0 -241.4,21.9 -241.8,24.5 		"/>
		<polygon class="st2" points="-223.5,0 -225.6,0 -240,14.4 -240.5,17 		"/>
		<polygon class="st2" points="-217.3,4 -217.3,6.2 -243.1,32 -242.7,29.4 		"/>
	</g>
	<polygon class="st2" points="-217.3,0 -217.3,38.5 -244.2,38.5 -244,36.8 -241.9,24.5 -217.4,0 	"/>
	<polygon class="st2" points="-217.3,0 -217.3,38.5 -244.2,38.5 -244,36.8 -241.9,24.5 -217.4,0 	"/>
</g>
<g>
	<polygon class="st0" points="40,0 37.8,11.4 37.8,11.4 10.8,38.5 0,38.5 0.3,38.2 0.3,0 	"/>
	<polygon class="st1" points="29.2,0 28.9,1.9 28.4,4.5 27.4,9.5 27,11.4 0.3,38.2 0.3,0 	"/>
	<polygon class="st2" points="29.2,0 28.9,1.9 28.4,4.5 27.4,9.5 27,11.4 0.3,38.2 0.3,0 	"/>
	<polygon class="st2" points="29.2,0 28.9,1.9 28.4,4.5 27.4,9.5 27,11.4 0.3,38.2 0.3,0 	"/>
	<g>
		<polygon class="st2" points="37.4,14 37.8,11.4 10.8,38.5 12.9,38.5 		"/>
		<polygon class="st2" points="38.7,6.5 39.2,3.9 4.6,38.5 6.7,38.5 		"/>
		<polygon class="st2" points="36.1,21.4 36.5,18.8 16.9,38.5 19,38.5 		"/>
		<polygon class="st2" points="34.7,28.9 35.2,26.3 23.1,38.5 25.2,38.5 		"/>
		<polygon class="st2" points="32.9,0 28.4,4.5 0.3,32.6 0.3,30.5 28.9,1.9 30.7,0 		"/>
		<polygon class="st2" points="39,0 0.6,38.5 0,38.5 0.3,38.2 0.3,36.6 27.4,9.5 36.9,0 		"/>
		<polygon class="st2" points="2.1,0 0.3,1.8 0.3,0 		"/>
		<polygon class="st2" points="26.7,0 0.3,26.5 0.3,24.3 24.6,0 		"/>
		<polygon class="st2" points="8.2,0 0.3,8 0.3,5.8 6.1,0 		"/>
		<polygon class="st2" points="20.6,0 0.3,20.3 0.3,18.2 18.4,0 		"/>
		<polygon class="st2" points="14.4,0 0.3,14.1 0.3,12 12.3,0 		"/>
	</g>
</g>
<polyline class="st3" points="-217.3,38.5 -217.3,36.9 -217.3,34.8 -217.3,30.8 -217.3,28.7 -217.3,24.6 -217.3,22.5 -217.3,18.5 
	-217.3,16.3 -217.3,12.3 -217.3,10.2 -217.3,6.2 -217.3,4 -217.3,0 "/>
</svg>
